<svg width="25" height="25" viewBox="0 0 25 25" fill="none" xmlns="http://www.w3.org/2000/svg">
<path d="M19.8572 8.71429C19.8572 13.8571 12.1429 19.8571 12.1429 19.8571C12.1429 19.8571 4.42859 13.8571 4.42859 8.71429C4.42859 4.51257 7.94116 1 12.1429 1C16.3446 1 19.8572 4.51257 19.8572 8.71429Z" stroke="#1E2228" stroke-width="2" stroke-linecap="round" stroke-linejoin="round"/>
<path d="M12.1428 11.2857C13.563 11.2857 14.7143 10.1344 14.7143 8.71425C14.7143 7.29409 13.563 6.14282 12.1428 6.14282C10.7227 6.14282 9.57141 7.29409 9.57141 8.71425C9.57141 10.1344 10.7227 11.2857 12.1428 11.2857Z" stroke="#1E2228" stroke-width="2" stroke-linecap="round" stroke-linejoin="round"/>
<path d="M19.1325 17.2856H20.7143L23.2857 23.2856H1L3.57143 17.2856H5.1532" stroke="#1E2228" stroke-width="2" stroke-linecap="round" stroke-linejoin="round"/>
</svg>
