<svg width="26" height="26" viewBox="0 0 26 26" fill="none" xmlns="http://www.w3.org/2000/svg">
<path d="M9.9963 23.2543C8.9428 23.9338 7.68741 24.2301 6.44121 24.0931C5.19503 23.956 4.03403 23.394 3.15347 22.5016L2.38364 21.7488C2.04615 21.4036 1.85718 20.94 1.85718 20.4573C1.85718 19.9745 2.04615 19.5108 2.38364 19.1657L5.6511 15.9324C5.99342 15.596 6.45417 15.4075 6.93414 15.4075C7.41409 15.4075 7.87485 15.596 8.21716 15.9324C8.56237 16.2699 9.02598 16.4589 9.50875 16.4589C9.99153 16.4589 10.4551 16.2699 10.8003 15.9324L15.9325 10.8003C16.1037 10.6316 16.2396 10.4305 16.3324 10.2088C16.4252 9.98707 16.473 9.7491 16.473 9.50874C16.473 9.26836 16.4252 9.0304 16.3324 8.80866C16.2396 8.58693 16.1037 8.38586 15.9325 8.21714C15.596 7.87483 15.4075 7.41407 15.4075 6.93412C15.4075 6.45415 15.596 5.9934 15.9325 5.65108L19.1828 2.40073C19.528 2.06324 19.9916 1.87427 20.4743 1.87427C20.9572 1.87427 21.4208 2.06324 21.766 2.40073L22.5188 3.17056C23.4111 4.05112 23.973 5.21212 24.1101 6.4583C24.2473 7.7045 23.9511 8.95989 23.2713 10.0134C19.7301 15.2323 15.2243 19.7265 9.9963 23.2543Z" stroke="#1E2228" stroke-width="2" stroke-linecap="round" stroke-linejoin="round"/>
</svg>
