<svg width="32" height="32" viewBox="0 0 32 32" fill="none" xmlns="http://www.w3.org/2000/svg" style="background: none;">
<rect width="32" height="32" />
<g clip-path="url(#clip0_17_2)">
<rect x="-463" y="-234" width="1440" height="4161" />
<path d="M-98 48C-70.3958 48 -63.4512 31 -42.5547 31C-23.6086 31 -15.2708 48 12.3333 48C39.9375 48 46.8822 31 67.7786 31C86.7248 31 95.0625 48 122.667 48C150.271 48 157.215 31 178.112 31C197.058 31 205.396 48 233 48" stroke="#636DCE" stroke-width="10"/>
<path d="M-271.8 10.728L-266.184 63H-284.832L-285.984 25.704L-293.184 63H-312.048L-319.392 25.992L-320.472 63H-339.12L-333.504 10.728H-309.024L-302.76 44.784L-297.288 10.728H-271.8ZM-238.696 63.72C-246.904 63.72 -252.952 61.848 -256.84 58.104C-260.68 54.312 -262.6 49.344 -262.6 43.2C-262.6 37.2 -260.68 32.328 -256.84 28.584C-252.952 24.84 -246.904 22.968 -238.696 22.968C-233.176 22.968 -228.568 23.88 -224.872 25.704C-221.128 27.48 -218.368 29.904 -216.592 32.976C-214.816 36 -213.928 39.408 -213.928 43.2C-213.928 49.392 -215.992 54.36 -220.12 58.104C-224.2 61.848 -230.392 63.72 -238.696 63.72ZM-238.408 51.48C-235.288 51.48 -232.96 50.736 -231.424 49.248C-229.888 47.76 -229.12 45.768 -229.12 43.272C-229.12 40.92 -229.888 39 -231.424 37.512C-232.96 35.976 -235.288 35.208 -238.408 35.208C-241.528 35.208 -243.808 35.952 -245.248 37.44C-246.688 38.928 -247.408 40.872 -247.408 43.272C-247.408 45.768 -246.688 47.76 -245.248 49.248C-243.808 50.736 -241.528 51.48 -238.408 51.48ZM-178.841 22.968C-175.721 22.968 -172.913 23.856 -170.417 25.632C-167.921 27.408 -165.977 29.832 -164.585 32.904C-163.193 35.928 -162.497 39.264 -162.497 42.912C-162.497 46.512 -163.193 49.92 -164.585 53.136C-165.977 56.304 -167.945 58.872 -170.489 60.84C-172.985 62.76 -175.841 63.72 -179.057 63.72C-182.801 63.72 -186.017 62.952 -188.705 61.416C-191.345 59.832 -193.313 57.408 -194.609 54.144C-194.609 56.88 -194.513 61.272 -194.321 67.32C-194.129 73.176 -194.033 77.304 -194.033 79.704H-210.305C-210.017 70.776 -209.873 61.44 -209.873 51.696C-209.873 41.952 -210.017 32.616 -210.305 23.688H-196.481L-194.393 32.688C-193.049 29.328 -191.033 26.88 -188.345 25.344C-185.657 23.76 -182.489 22.968 -178.841 22.968ZM-186.545 50.76C-184.385 50.76 -182.585 50.088 -181.145 48.744C-179.657 47.352 -178.913 45.552 -178.913 43.344C-178.913 40.896 -179.585 38.904 -180.929 37.368C-182.273 35.832 -184.097 35.064 -186.401 35.064C-189.041 35.064 -191.033 35.712 -192.377 37.008C-193.721 38.256 -194.393 40.368 -194.393 43.344C-194.393 45.024 -193.961 46.44 -193.097 47.592C-192.233 48.696 -191.201 49.512 -190.001 50.04C-188.801 50.52 -187.649 50.76 -186.545 50.76ZM-120.782 45H-144.254C-143.87 47.112 -142.934 48.84 -141.446 50.184C-139.91 51.48 -137.75 52.128 -134.966 52.128C-132.95 52.128 -131.054 51.744 -129.278 50.976C-127.502 50.16 -126.086 49.032 -125.03 47.592C-121.814 49.176 -117.542 50.88 -112.214 52.704C-113.702 56.064 -116.414 58.752 -120.35 60.768C-124.238 62.736 -129.326 63.72 -135.614 63.72C-143.774 63.72 -149.822 61.848 -153.758 58.104C-157.646 54.312 -159.59 49.344 -159.59 43.2C-159.59 37.2 -157.646 32.328 -153.758 28.584C-149.87 24.84 -143.822 22.968 -135.614 22.968C-130.718 22.968 -126.47 23.784 -122.87 25.416C-119.27 27.048 -116.51 29.328 -114.59 32.256C-112.67 35.136 -111.71 38.448 -111.71 42.192C-111.71 43.44 -111.758 44.376 -111.854 45H-120.782ZM-134.606 33.84C-137.006 33.84 -138.974 34.296 -140.51 35.208C-142.046 36.12 -143.126 37.368 -143.75 38.952H-126.758C-127.334 37.416 -128.27 36.192 -129.566 35.28C-130.862 34.32 -132.542 33.84 -134.606 33.84Z" fill="#636DCE"/>
<path d="M-339.12 95.76H-292.608V135.36H-308.376V109.296H-323.352V135.36H-339.12V95.76ZM-256.854 94.968C-253.734 94.968 -250.926 95.856 -248.43 97.632C-245.934 99.408 -243.99 101.832 -242.598 104.904C-241.206 107.928 -240.51 111.264 -240.51 114.912C-240.51 118.512 -241.206 121.92 -242.598 125.136C-243.99 128.304 -245.958 130.872 -248.502 132.84C-250.998 134.76 -253.854 135.72 -257.07 135.72C-260.814 135.72 -264.03 134.952 -266.718 133.416C-269.358 131.832 -271.326 129.408 -272.622 126.144C-272.622 128.88 -272.526 133.272 -272.334 139.32C-272.142 145.176 -272.046 149.304 -272.046 151.704H-288.318C-288.03 142.776 -287.886 133.44 -287.886 123.696C-287.886 113.952 -288.03 104.616 -288.318 95.688H-274.494L-272.406 104.688C-271.062 101.328 -269.046 98.88 -266.358 97.344C-263.67 95.76 -260.502 94.968 -256.854 94.968ZM-264.558 122.76C-262.398 122.76 -260.598 122.088 -259.158 120.744C-257.67 119.352 -256.926 117.552 -256.926 115.344C-256.926 112.896 -257.598 110.904 -258.942 109.368C-260.286 107.832 -262.11 107.064 -264.414 107.064C-267.054 107.064 -269.046 107.712 -270.39 109.008C-271.734 110.256 -272.406 112.368 -272.406 115.344C-272.406 117.024 -271.974 118.44 -271.11 119.592C-270.246 120.696 -269.214 121.512 -268.014 122.04C-266.814 122.52 -265.662 122.76 -264.558 122.76ZM-191.811 95.688C-192.051 102.648 -192.171 108.936 -192.171 114.552C-192.171 120.072 -192.051 126.36 -191.811 133.416H-206.571L-205.779 108.504L-216.795 133.416H-236.883C-236.595 127.08 -236.451 120.792 -236.451 114.552C-236.451 108.216 -236.595 101.928 -236.883 95.688H-222.699L-223.419 121.248L-212.403 95.688H-191.811ZM-150.695 116.208C-148.535 117.936 -146.879 119.88 -145.727 122.04C-144.575 124.2 -143.495 126.792 -142.487 129.816C-141.479 132.456 -140.759 134.184 -140.327 135H-157.679C-157.823 134.664 -158.111 133.608 -158.543 131.832C-158.927 130.056 -159.311 128.64 -159.695 127.584C-160.079 126.48 -160.655 125.52 -161.423 124.704C-162.623 123.408 -163.967 122.568 -165.455 122.184C-166.943 121.8 -169.151 121.608 -172.079 121.608V135H-187.487C-187.247 129.528 -187.127 122.976 -187.127 115.344C-187.127 107.712 -187.247 101.16 -187.487 95.688H-172.079V109.8H-171.791C-166.079 104.088 -161.927 99.384 -159.335 95.688H-140.327L-157.175 112.464C-154.679 113.52 -152.519 114.768 -150.695 116.208ZM-94.0084 135.36H-109.776V109.296H-120L-120.072 111.528C-120.12 113.832 -120.216 115.872 -120.36 117.648C-120.456 119.376 -120.696 121.248 -121.08 123.264C-122.712 132.048 -129.36 136.44 -141.024 136.44V124.992C-138.768 124.704 -137.232 124.008 -136.416 122.904C-135.6 121.752 -135.192 119.976 -135.192 117.576V95.688L-94.0084 95.76V135.36ZM-50.5834 94.968C-43.6714 94.968 -38.6074 96.768 -35.3914 100.368C-32.1274 103.968 -30.4954 108.96 -30.4954 115.344C-30.4954 121.824 -32.1034 126.84 -35.3194 130.392C-38.5354 133.944 -43.6234 135.72 -50.5834 135.72C-56.3914 135.72 -60.9034 134.448 -64.1194 131.904C-67.3354 129.312 -69.3754 125.64 -70.2394 120.888H-74.7754V124.848C-74.7754 127.44 -74.7274 130.896 -74.6314 135.216H-89.6794C-89.5834 126.96 -89.5354 120.264 -89.5354 115.128C-89.5354 109.944 -89.5834 103.464 -89.6794 95.688H-74.6314C-74.7274 101.16 -74.7754 105.768 -74.7754 109.512H-70.1674C-69.3034 104.904 -67.2634 101.328 -64.0474 98.784C-60.8314 96.24 -56.3434 94.968 -50.5834 94.968ZM-50.5834 124.344C-48.5674 124.344 -46.9594 123.576 -45.7594 122.04C-44.5594 120.504 -43.9594 118.272 -43.9594 115.344C-43.9594 112.464 -44.5594 110.256 -45.7594 108.72C-46.9594 107.184 -48.5674 106.416 -50.5834 106.416C-52.6474 106.416 -54.2794 107.184 -55.4794 108.72C-56.6314 110.256 -57.2074 112.464 -57.2074 115.344C-57.2074 118.272 -56.6074 120.504 -55.4074 122.04C-54.2074 123.576 -52.5994 124.344 -50.5834 124.344ZM17.2654 95.688C17.0254 101.064 16.9054 107.592 16.9054 115.272C16.9054 122.904 17.0254 129.432 17.2654 134.856H1.49736L1.64136 127.008C-2.00664 129.168 -5.94264 130.248 -10.1666 130.248C-15.6866 130.248 -19.6946 128.64 -22.1906 125.424C-24.6386 122.16 -25.8626 117.912 -25.8626 112.68V108C-25.8626 102.384 -25.9586 98.28 -26.1506 95.688H-11.1746C-11.4146 101.592 -11.5346 106.536 -11.5346 110.52C-11.5346 113.208 -11.0306 115.176 -10.0226 116.424C-8.96664 117.624 -7.28664 118.224 -4.98264 118.224C-3.83064 118.224 -2.67864 117.96 -1.52664 117.432C-0.326639 116.856 0.753361 116.112 1.71336 115.2C1.71336 104.976 1.64136 98.472 1.49736 95.688H17.2654ZM59.6458 117H36.1738C36.5578 119.112 37.4938 120.84 38.9818 122.184C40.5178 123.48 42.6778 124.128 45.4618 124.128C47.4778 124.128 49.3738 123.744 51.1498 122.976C52.9258 122.16 54.3418 121.032 55.3978 119.592C58.6138 121.176 62.8858 122.88 68.2138 124.704C66.7258 128.064 64.0138 130.752 60.0778 132.768C56.1898 134.736 51.1018 135.72 44.8138 135.72C36.6538 135.72 30.6058 133.848 26.6698 130.104C22.7818 126.312 20.8378 121.344 20.8378 115.2C20.8378 109.2 22.7818 104.328 26.6698 100.584C30.5578 96.84 36.6058 94.968 44.8138 94.968C49.7098 94.968 53.9578 95.784 57.5578 97.416C61.1578 99.048 63.9178 101.328 65.8378 104.256C67.7578 107.136 68.7178 110.448 68.7178 114.192C68.7178 115.44 68.6698 116.376 68.5738 117H59.6458ZM45.8218 105.84C43.4218 105.84 41.4538 106.296 39.9178 107.208C38.3818 108.12 37.3018 109.368 36.6778 110.952H53.6698C53.0938 109.416 52.1578 108.192 50.8618 107.28C49.5658 106.32 47.8858 105.84 45.8218 105.84ZM117.65 95.688C117.41 102.984 117.29 109.536 117.29 115.344C117.29 121.152 117.41 127.704 117.65 135H102.026V121.896H87.9137V135H72.2897C72.5297 129.528 72.6497 122.976 72.6497 115.344C72.6497 107.712 72.5297 101.16 72.2897 95.688H87.9137V108.792H102.026V95.688H117.65ZM167.039 95.688C166.799 102.648 166.679 108.936 166.679 114.552C166.679 120.072 166.799 126.36 167.039 133.416H152.279L153.071 108.504L142.055 133.416H121.967C122.255 127.08 122.399 120.792 122.399 114.552C122.399 108.216 122.255 101.928 121.967 95.688H136.151L135.431 121.248L146.447 95.688H167.039ZM216.435 95.688C216.195 102.648 216.075 108.936 216.075 114.552C216.075 120.072 216.195 126.36 216.435 133.416H201.675L202.467 108.504L191.451 133.416H171.363C171.651 127.08 171.795 120.792 171.795 114.552C171.795 108.216 171.651 101.928 171.363 95.688H185.547L184.827 121.248L195.843 95.688H216.435ZM193.179 93.96C190.923 93.96 188.835 93.456 186.915 92.448C185.043 91.44 183.555 90 182.451 88.128C181.347 86.256 180.795 84.072 180.795 81.576H187.923C187.923 83.448 188.403 84.84 189.363 85.752C190.371 86.616 191.643 87.048 193.179 87.048C194.715 87.048 195.963 86.616 196.923 85.752C197.931 84.84 198.435 83.448 198.435 81.576H205.563C205.563 84.072 205.011 86.256 203.907 88.128C202.803 90 201.291 91.44 199.371 92.448C197.499 93.456 195.435 93.96 193.179 93.96ZM-307.368 187.488C-299.16 187.488 -295.056 190.104 -295.056 195.336C-295.056 199.08 -296.496 201.96 -299.376 203.976C-302.208 205.992 -307.344 207 -314.784 207H-339.12C-338.88 201.528 -338.76 194.976 -338.76 187.344C-338.76 179.712 -338.88 173.16 -339.12 167.688H-324.216V167.76H-314.856C-310.344 167.76 -306.816 168.144 -304.272 168.912C-301.68 169.632 -299.856 170.688 -298.8 172.08C-297.744 173.472 -297.216 175.248 -297.216 177.408C-297.216 182.256 -300.6 185.616 -307.368 187.488ZM-324.216 177.624V182.664H-318.744C-316.536 182.664 -314.976 182.472 -314.064 182.088C-313.152 181.656 -312.696 180.912 -312.696 179.856C-312.696 179.04 -313.176 178.464 -314.136 178.128C-315.048 177.792 -316.584 177.624 -318.744 177.624H-324.216ZM-318.744 197.064C-316.008 197.064 -314.136 196.872 -313.128 196.488C-312.12 196.056 -311.616 195.312 -311.616 194.256C-311.616 193.344 -312.144 192.672 -313.2 192.24C-314.256 191.808 -316.104 191.592 -318.744 191.592H-324.216V197.064H-318.744ZM-241.716 188.208C-239.556 189.936 -237.9 191.88 -236.748 194.04C-235.596 196.2 -234.516 198.792 -233.508 201.816C-232.5 204.456 -231.78 206.184 -231.348 207H-248.7C-248.844 206.664 -249.132 205.608 -249.564 203.832C-249.948 202.056 -250.332 200.64 -250.716 199.584C-251.1 198.48 -251.676 197.52 -252.444 196.704C-253.644 195.408 -254.988 194.568 -256.476 194.184C-257.964 193.8 -260.172 193.608 -263.1 193.608V207H-278.508C-278.268 201.528 -278.148 194.976 -278.148 187.344C-278.148 179.712 -278.268 173.16 -278.508 167.688H-263.1V181.8H-262.812C-257.1 176.088 -252.948 171.384 -250.356 167.688H-231.348L-248.196 184.464C-245.7 185.52 -243.54 186.768 -241.716 188.208ZM-183.733 195.048C-183.733 196.68 -183.541 197.832 -183.157 198.504C-182.773 199.176 -182.005 199.656 -180.853 199.944L-181.141 206.712C-182.677 206.952 -184.021 207.12 -185.173 207.216C-186.277 207.312 -187.765 207.36 -189.637 207.36C-193.765 207.36 -196.501 206.448 -197.845 204.624C-199.189 202.752 -199.861 200.376 -199.861 197.496V195.696C-201.253 199.632 -203.293 202.56 -205.981 204.48C-208.621 206.4 -212.005 207.36 -216.133 207.36C-220.933 207.36 -224.557 206.4 -227.005 204.48C-229.405 202.56 -230.605 199.704 -230.605 195.912C-230.605 192.792 -229.573 190.344 -227.509 188.568C-225.445 186.792 -222.253 185.568 -217.933 184.896C-221.581 182.304 -225.229 180.048 -228.877 178.128C-225.997 174.48 -222.709 171.72 -219.013 169.848C-215.317 167.928 -210.829 166.968 -205.549 166.968C-198.157 166.968 -192.685 168.576 -189.133 171.792C-185.533 174.96 -183.733 179.856 -183.733 186.48V195.048ZM-204.037 179.64C-206.485 179.64 -208.645 180.048 -210.517 180.864C-212.389 181.68 -214.069 182.904 -215.557 184.536C-212.677 184.2 -209.077 184.032 -204.757 184.032C-202.981 184.032 -201.733 183.816 -201.013 183.384C-200.293 182.952 -199.933 182.4 -199.933 181.728C-199.933 181.152 -200.293 180.672 -201.013 180.288C-201.733 179.856 -202.741 179.64 -204.037 179.64ZM-211.597 195.624C-208.909 195.624 -206.485 195.12 -204.325 194.112C-202.165 193.056 -200.677 191.688 -199.861 190.008V188.136C-201.013 188.712 -202.285 189.168 -203.677 189.504C-205.069 189.792 -206.749 190.08 -208.717 190.368L-211.309 190.8C-213.997 191.328 -215.341 192.24 -215.341 193.536C-215.341 194.928 -214.093 195.624 -211.597 195.624ZM-137.134 185.544C-135.886 186.264 -134.782 187.152 -133.822 188.208C-132.19 189.936 -130.942 191.856 -130.078 193.968C-129.214 196.032 -128.35 198.648 -127.486 201.816C-126.862 204.12 -126.334 205.848 -125.902 207H-139.798C-139.99 206.328 -140.23 205.224 -140.518 203.688C-140.806 201.96 -141.094 200.568 -141.382 199.512C-141.67 198.456 -142.102 197.52 -142.678 196.704C-143.446 195.552 -144.286 194.64 -145.198 193.968C-146.11 193.248 -147.166 192.72 -148.366 192.384C-148.366 195.6 -148.27 200.472 -148.078 207H-158.806C-158.614 200.568 -158.518 195.744 -158.518 192.528C-159.574 192.864 -160.51 193.392 -161.326 194.112C-162.142 194.784 -162.934 195.648 -163.702 196.704C-164.278 197.52 -164.71 198.456 -164.998 199.512C-165.286 200.568 -165.574 201.96 -165.862 203.688C-166.15 205.224 -166.39 206.328 -166.582 207H-180.478C-180.046 205.848 -179.518 204.12 -178.894 201.816C-178.03 198.648 -177.166 196.032 -176.302 193.968C-175.438 191.856 -174.19 189.936 -172.558 188.208C-171.598 187.152 -170.494 186.264 -169.246 185.544L-180.838 167.688H-166.366C-164.35 172.296 -161.734 176.928 -158.518 181.584C-158.614 175.344 -158.71 170.712 -158.806 167.688H-148.078C-148.27 174.024 -148.366 178.776 -148.366 181.944L-148.15 182.016C-144.886 177.36 -142.174 172.584 -140.014 167.688H-125.542L-137.134 185.544ZM-79.2045 196.776H-77.0445V216.144H-90.6525V208.296H-113.404V216.288H-127.012V196.776H-124.636C-123.004 196.536 -121.78 195.936 -120.964 194.976C-120.1 194.016 -119.428 192.432 -118.948 190.224C-118.612 188.496 -118.444 184.368 -118.444 177.84V167.688L-79.2045 167.76V196.776ZM-106.204 194.4C-106.3 194.928 -106.492 195.72 -106.78 196.776H-92.9565V179.856H-105.196V182.016C-105.244 184.8 -105.316 187.008 -105.412 188.64C-105.508 190.224 -105.772 192.144 -106.204 194.4ZM-49.5135 207.72C-57.7215 207.72 -63.7695 205.848 -67.6575 202.104C-71.4975 198.312 -73.4175 193.344 -73.4175 187.2C-73.4175 181.2 -71.4975 176.328 -67.6575 172.584C-63.7695 168.84 -57.7215 166.968 -49.5135 166.968C-43.9935 166.968 -39.3855 167.88 -35.6895 169.704C-31.9455 171.48 -29.1855 173.904 -27.4095 176.976C-25.6335 180 -24.7455 183.408 -24.7455 187.2C-24.7455 193.392 -26.8095 198.36 -30.9375 202.104C-35.0175 205.848 -41.2095 207.72 -49.5135 207.72ZM-49.2255 195.48C-46.1055 195.48 -43.7775 194.736 -42.2415 193.248C-40.7055 191.76 -39.9375 189.768 -39.9375 187.272C-39.9375 184.92 -40.7055 183 -42.2415 181.512C-43.7775 179.976 -46.1055 179.208 -49.2255 179.208C-52.3455 179.208 -54.6255 179.952 -56.0655 181.44C-57.5055 182.928 -58.2255 184.872 -58.2255 187.272C-58.2255 189.768 -57.5055 191.76 -56.0655 193.248C-54.6255 194.736 -52.3455 195.48 -49.2255 195.48ZM23.9501 167.688C23.7101 174.648 23.5901 180.936 23.5901 186.552C23.5901 192.072 23.7101 198.36 23.9501 205.416H9.19014L9.98214 180.504L-1.03386 205.416H-21.1219C-20.8339 199.08 -20.6899 192.792 -20.6899 186.552C-20.6899 180.216 -20.8339 173.928 -21.1219 167.688H-6.93786L-7.65786 193.248L3.35814 167.688H23.9501ZM0.69414 165.96C-1.56186 165.96 -3.64986 165.456 -5.56986 164.448C-7.44186 163.44 -8.92986 162 -10.0339 160.128C-11.1379 158.256 -11.6899 156.072 -11.6899 153.576H-4.56186C-4.56186 155.448 -4.08186 156.84 -3.12186 157.752C-2.11386 158.616 -0.84186 159.048 0.69414 159.048C2.23014 159.048 3.47814 158.616 4.43814 157.752C5.44614 156.84 5.95014 155.448 5.95014 153.576H13.0781C13.0781 156.072 12.5261 158.256 11.4221 160.128C10.3181 162 8.80614 163.44 6.88614 164.448C5.01414 165.456 2.95014 165.96 0.69414 165.96ZM86.3201 167.688C86.0801 174.648 85.9601 180.936 85.9601 186.552C85.9601 192.072 86.0801 198.36 86.3201 205.416H71.5601L72.3521 180.504L61.3361 205.416H41.2481C41.5361 199.08 41.6801 192.792 41.6801 186.552C41.6801 180.216 41.5361 173.928 41.2481 167.688H55.4321L54.7121 193.248L65.7281 167.688H86.3201ZM105.98 207H90.6441C90.8841 201.48 91.0041 194.928 91.0041 187.344C91.0041 179.712 90.8841 173.16 90.6441 167.688H131.108C131.06 169.368 131.036 172.728 131.036 177.768V181.656H105.98V207ZM163.981 166.968C167.101 166.968 169.909 167.856 172.405 169.632C174.901 171.408 176.845 173.832 178.237 176.904C179.629 179.928 180.325 183.264 180.325 186.912C180.325 190.512 179.629 193.92 178.237 197.136C176.845 200.304 174.877 202.872 172.333 204.84C169.837 206.76 166.981 207.72 163.765 207.72C160.021 207.72 156.805 206.952 154.117 205.416C151.477 203.832 149.509 201.408 148.213 198.144C148.213 200.88 148.309 205.272 148.501 211.32C148.693 217.176 148.789 221.304 148.789 223.704H132.517C132.805 214.776 132.949 205.44 132.949 195.696C132.949 185.952 132.805 176.616 132.517 167.688H146.341L148.429 176.688C149.773 173.328 151.789 170.88 154.477 169.344C157.165 167.76 160.333 166.968 163.981 166.968ZM156.277 194.76C158.437 194.76 160.237 194.088 161.677 192.744C163.165 191.352 163.909 189.552 163.909 187.344C163.909 184.896 163.237 182.904 161.893 181.368C160.549 179.832 158.725 179.064 156.421 179.064C153.781 179.064 151.789 179.712 150.445 181.008C149.101 182.256 148.429 184.368 148.429 187.344C148.429 189.024 148.861 190.44 149.725 191.592C150.589 192.696 151.621 193.512 152.821 194.04C154.021 194.52 155.173 194.76 156.277 194.76ZM222.04 189H198.568C198.952 191.112 199.888 192.84 201.376 194.184C202.912 195.48 205.072 196.128 207.856 196.128C209.872 196.128 211.768 195.744 213.544 194.976C215.32 194.16 216.736 193.032 217.792 191.592C221.008 193.176 225.28 194.88 230.608 196.704C229.12 200.064 226.408 202.752 222.472 204.768C218.584 206.736 213.496 207.72 207.208 207.72C199.048 207.72 193 205.848 189.064 202.104C185.176 198.312 183.232 193.344 183.232 187.2C183.232 181.2 185.176 176.328 189.064 172.584C192.952 168.84 199 166.968 207.208 166.968C212.104 166.968 216.352 167.784 219.952 169.416C223.552 171.048 226.312 173.328 228.232 176.256C230.152 179.136 231.112 182.448 231.112 186.192C231.112 187.44 231.064 188.376 230.968 189H222.04ZM208.216 177.84C205.816 177.84 203.848 178.296 202.312 179.208C200.776 180.12 199.696 181.368 199.072 182.952H216.064C215.488 181.416 214.552 180.192 213.256 179.28C211.96 178.32 210.28 177.84 208.216 177.84Z" />
<mask id="path-5-outside-1_17_2" maskUnits="userSpaceOnUse" x="0" y="0" width="32" height="32" >
<rect fill="white" width="32" height="32"/>
<path fill-rule="evenodd" clip-rule="evenodd" d="M28.7586 3.2414C28.2481 2.73084 27.3142 2.2272 26.2718 1.84316C25.1668 1.43601 23.7488 1.09232 22.142 1.01582C19.3767 0.884134 16.0751 1.54899 12.922 3.98052C12.8729 3.99911 12.8244 4.02036 12.7763 4.04435L8.40735 6.22886C7.64431 6.61036 7.33504 7.53822 7.71656 8.30125C7.91707 8.70228 8.2685 8.97798 8.6676 9.09392C7.68441 11.0397 7.062 13.2442 6.84814 15.4896C6.73316 16.6968 6.64984 18.4705 6.56335 20.3113C6.52687 21.088 6.48979 21.8773 6.44956 22.6404C5.49643 22.7159 4.61529 22.8075 3.89575 22.9243C3.13702 23.0472 2.28628 23.1975 1.67411 23.7016C1.41332 23.9164 1 24.3754 1 25.0864C1 26.5127 2.28603 27.8314 3.22732 28.7727C4.16862 29.7141 5.48729 31 6.91367 31C7.62462 31 8.08366 30.5868 8.29842 30.3259C8.80252 29.7138 8.95279 28.8629 9.07582 28.1044C9.19249 27.3847 9.28407 26.5036 9.35969 25.5505C10.1229 25.5102 10.9117 25.4732 11.6886 25.4367C13.5294 25.3502 15.3033 25.2669 16.5104 25.1519C18.7558 24.9381 20.9603 24.3156 22.9061 23.3324C23.0222 23.7315 23.2979 24.083 23.6989 24.2836C24.4619 24.6651 25.3898 24.3557 25.7712 23.5928L27.9558 19.2237C27.9798 19.1757 28.0011 19.1269 28.0198 19.0777C30.4511 15.9246 31.1159 12.6232 30.9842 9.85795C30.9077 8.2513 30.564 6.83327 30.1568 5.72815C29.7728 4.68578 29.2691 3.75196 28.7586 3.2414ZM11.6883 22.3435C10.9921 22.3759 10.2739 22.4093 9.5537 22.4464C9.59072 21.7261 9.62413 21.008 9.65652 20.3118C9.73824 18.5553 9.81345 16.9387 9.92357 15.7825C10.2337 12.5261 11.552 9.52555 13.4671 7.6104C16.4011 4.67648 19.5105 3.98335 21.9951 4.10167C23.2557 4.1617 24.3634 4.43239 25.2038 4.74203C25.6694 4.91357 26.1784 5.11061 26.5712 5.42388L26.574 5.42606L26.5761 5.42881C26.8894 5.82171 27.0865 6.33053 27.258 6.79616C27.5677 7.6366 27.8383 8.74439 27.8984 10.0049C28.0167 12.4895 27.3236 15.599 24.3896 18.5329C22.4744 20.448 19.474 21.7663 16.2174 22.0764C15.0614 22.1866 13.4447 22.2618 11.6883 22.3435ZM4.7873 25.9149C5.21325 25.8569 5.70331 25.805 6.24235 25.7577C6.19509 26.2968 6.14311 26.7868 6.08517 27.2128C5.8657 27.0251 5.63724 26.8136 5.41181 26.5883C5.1864 26.3627 4.97497 26.1343 4.7873 25.9149Z"/>
</mask>
<path fill-rule="evenodd" clip-rule="evenodd" d="M28.7586 3.2414C28.2481 2.73084 27.3142 2.2272 26.2718 1.84316C25.1668 1.43601 23.7488 1.09232 22.142 1.01582C19.3767 0.884134 16.0751 1.54899 12.922 3.98052C12.8729 3.99911 12.8244 4.02036 12.7763 4.04435L8.40735 6.22886C7.64431 6.61036 7.33504 7.53822 7.71656 8.30125C7.91707 8.70228 8.2685 8.97798 8.6676 9.09392C7.68441 11.0397 7.062 13.2442 6.84814 15.4896C6.73316 16.6968 6.64984 18.4705 6.56335 20.3113C6.52687 21.088 6.48979 21.8773 6.44956 22.6404C5.49643 22.7159 4.61529 22.8075 3.89575 22.9243C3.13702 23.0472 2.28628 23.1975 1.67411 23.7016C1.41332 23.9164 1 24.3754 1 25.0864C1 26.5127 2.28603 27.8314 3.22732 28.7727C4.16862 29.7141 5.48729 31 6.91367 31C7.62462 31 8.08366 30.5868 8.29842 30.3259C8.80252 29.7138 8.95279 28.8629 9.07582 28.1044C9.19249 27.3847 9.28407 26.5036 9.35969 25.5505C10.1229 25.5102 10.9117 25.4732 11.6886 25.4367C13.5294 25.3502 15.3033 25.2669 16.5104 25.1519C18.7558 24.9381 20.9603 24.3156 22.9061 23.3324C23.0222 23.7315 23.2979 24.083 23.6989 24.2836C24.4619 24.6651 25.3898 24.3557 25.7712 23.5928L27.9558 19.2237C27.9798 19.1757 28.0011 19.1269 28.0198 19.0777C30.4511 15.9246 31.1159 12.6232 30.9842 9.85795C30.9077 8.2513 30.564 6.83327 30.1568 5.72815C29.7728 4.68578 29.2691 3.75196 28.7586 3.2414ZM11.6883 22.3435C10.9921 22.3759 10.2739 22.4093 9.5537 22.4464C9.59072 21.7261 9.62413 21.008 9.65652 20.3118C9.73824 18.5553 9.81345 16.9387 9.92357 15.7825C10.2337 12.5261 11.552 9.52555 13.4671 7.6104C16.4011 4.67648 19.5105 3.98335 21.9951 4.10167C23.2557 4.1617 24.3634 4.43239 25.2038 4.74203C25.6694 4.91357 26.1784 5.11061 26.5712 5.42388L26.574 5.42606L26.5761 5.42881C26.8894 5.82171 27.0865 6.33053 27.258 6.79616C27.5677 7.6366 27.8383 8.74439 27.8984 10.0049C28.0167 12.4895 27.3236 15.599 24.3896 18.5329C22.4744 20.448 19.474 21.7663 16.2174 22.0764C15.0614 22.1866 13.4447 22.2618 11.6883 22.3435ZM4.7873 25.9149C5.21325 25.8569 5.70331 25.805 6.24235 25.7577C6.19509 26.2968 6.14311 26.7868 6.08517 27.2128C5.8657 27.0251 5.63724 26.8136 5.41181 26.5883C5.1864 26.3627 4.97497 26.1343 4.7873 25.9149Z" fill="#636DCE"/>
<path fill-rule="evenodd" clip-rule="evenodd" d="M28.7586 3.2414C28.2481 2.73084 27.3142 2.2272 26.2718 1.84316C25.1668 1.43601 23.7488 1.09232 22.142 1.01582C19.3767 0.884134 16.0751 1.54899 12.922 3.98052C12.8729 3.99911 12.8244 4.02036 12.7763 4.04435L8.40735 6.22886C7.64431 6.61036 7.33504 7.53822 7.71656 8.30125C7.91707 8.70228 8.2685 8.97798 8.6676 9.09392C7.68441 11.0397 7.062 13.2442 6.84814 15.4896C6.73316 16.6968 6.64984 18.4705 6.56335 20.3113C6.52687 21.088 6.48979 21.8773 6.44956 22.6404C5.49643 22.7159 4.61529 22.8075 3.89575 22.9243C3.13702 23.0472 2.28628 23.1975 1.67411 23.7016C1.41332 23.9164 1 24.3754 1 25.0864C1 26.5127 2.28603 27.8314 3.22732 28.7727C4.16862 29.7141 5.48729 31 6.91367 31C7.62462 31 8.08366 30.5868 8.29842 30.3259C8.80252 29.7138 8.95279 28.8629 9.07582 28.1044C9.19249 27.3847 9.28407 26.5036 9.35969 25.5505C10.1229 25.5102 10.9117 25.4732 11.6886 25.4367C13.5294 25.3502 15.3033 25.2669 16.5104 25.1519C18.7558 24.9381 20.9603 24.3156 22.9061 23.3324C23.0222 23.7315 23.2979 24.083 23.6989 24.2836C24.4619 24.6651 25.3898 24.3557 25.7712 23.5928L27.9558 19.2237C27.9798 19.1757 28.0011 19.1269 28.0198 19.0777C30.4511 15.9246 31.1159 12.6232 30.9842 9.85795C30.9077 8.2513 30.564 6.83327 30.1568 5.72815C29.7728 4.68578 29.2691 3.75196 28.7586 3.2414ZM11.6883 22.3435C10.9921 22.3759 10.2739 22.4093 9.5537 22.4464C9.59072 21.7261 9.62413 21.008 9.65652 20.3118C9.73824 18.5553 9.81345 16.9387 9.92357 15.7825C10.2337 12.5261 11.552 9.52555 13.4671 7.6104C16.4011 4.67648 19.5105 3.98335 21.9951 4.10167C23.2557 4.1617 24.3634 4.43239 25.2038 4.74203C25.6694 4.91357 26.1784 5.11061 26.5712 5.42388L26.574 5.42606L26.5761 5.42881C26.8894 5.82171 27.0865 6.33053 27.258 6.79616C27.5677 7.6366 27.8383 8.74439 27.8984 10.0049C28.0167 12.4895 27.3236 15.599 24.3896 18.5329C22.4744 20.448 19.474 21.7663 16.2174 22.0764C15.0614 22.1866 13.4447 22.2618 11.6883 22.3435ZM4.7873 25.9149C5.21325 25.8569 5.70331 25.805 6.24235 25.7577C6.19509 26.2968 6.14311 26.7868 6.08517 27.2128C5.8657 27.0251 5.63724 26.8136 5.41181 26.5883C5.1864 26.3627 4.97497 26.1343 4.7873 25.9149Z" stroke="#636DCE" stroke-width="2" mask="url(#path-5-outside-1_17_2)"/>
<path d="M23.2974 11.9794C22.3925 12.8843 20.9256 12.8843 20.0207 11.9794C19.1158 11.0746 19.1158 9.60753 20.0207 8.70269C20.9256 7.79783 22.3925 7.79783 23.2974 8.70269C24.2023 9.60753 24.2023 11.0746 23.2974 11.9794Z" fill="#636DCE"/>
</g>
<rect x="-462.5" y="-233.5" width="1439" height="4160" stroke="#1E2228"/>
<defs>
<clipPath id="clip0_17_2">
<rect x="-463" y="-234" width="1440" height="4161" fill="white"/>
</clipPath>
</defs>
</svg>
