<svg width="227" height="163" viewBox="0 0 227 163" fill="none" xmlns="http://www.w3.org/2000/svg">
<path d="M40.5626 24.3754C24.4006 39.4481 8.50491 70.985 14.6861 93.9831C20.0853 114.072 48.5707 117.8 65.4032 117.143C74.1877 116.8 83.929 115.009 92.5641 117.099C100.359 118.987 106.128 124.53 112.535 129.015C124.459 137.365 138.326 146.008 153.606 144.647C173.976 142.833 196.899 128.494 210.329 113.937C232.631 89.76 229.793 56.6513 205.743 34.2966C184.974 14.994 155.805 8.62585 128.349 12.4951C111.617 14.8538 96.8316 17.9104 80.2586 13.1607C68.8475 9.89149 45.5853 9.73786 40.5626 24.3754Z" fill="white"/>
<path d="M41.16 87.2354C40.4671 87.9633 39.8634 88.7982 39.3721 89.7499C37.8628 92.6774 37.4462 96.0357 37.2056 99.2871C39.0892 97.033 40.6119 94.3348 41.1656 91.483C41.4552 89.9881 41.4507 88.57 41.16 87.2354Z" fill="#1E2228"/>
<path d="M204.413 103.427C204.119 103.929 203.832 104.443 203.545 104.956C203.05 105.841 202.538 106.756 201.986 107.62C201.597 108.229 201.057 108.788 200.535 109.326C200.293 109.576 200.061 109.818 199.851 110.057C200.242 110.004 200.647 109.978 201.091 110.012C202.219 110.099 203.371 110.561 204.485 111.01C204.529 111.027 204.571 111.042 204.615 111.06C205.016 111.107 205.417 111.154 205.819 111.185C207.912 111.352 210.017 111.29 212.097 111.014C212.874 110.912 213.77 110.83 214.14 110.024C214.538 109.161 213.889 108.393 213.326 107.806C211.99 106.416 210.842 104.907 209.715 103.349C208.887 102.207 208.144 101.01 207.462 99.7792C206.307 100.789 205.286 101.936 204.413 103.427Z" fill="#1E2228"/>
<path d="M66.2988 53.064L66.2308 54.5211C66.0292 58.752 65.8209 63.1288 66.8212 67.2919C69.1293 76.9014 73.6919 84.5374 82.0787 92.8279C88.6977 99.3708 97.9076 104.001 105.193 107.305C116.759 112.549 129.49 116.207 145.26 118.815C151.188 119.797 159.539 120.488 165.652 118.203C170.552 116.373 175.318 113.343 179.927 110.413C180.785 109.869 181.634 109.329 182.473 108.804C185.641 106.823 189.016 105.342 192.281 103.908C194.169 103.079 196.121 102.222 198.021 101.274C199.315 100.629 200.721 100.083 202.209 99.5089C204.102 98.7753 206.034 98.0262 207.73 97.0522C208.894 95.3124 209.733 93.3511 210.118 91.2996C210.624 88.6014 210.56 85.4424 208.884 83.1293C208.152 82.1197 207.163 81.3862 205.973 81.0055C205.189 80.755 204.385 80.7005 203.605 80.5547C200.733 82.5895 197.907 84.6754 195.145 86.7269C185.734 93.7162 176.003 100.944 164.591 105.517C159.717 107.471 155.087 108.429 150.149 108.429C146.846 108.429 143.406 108.001 139.662 107.154C132.145 105.454 124.158 103.558 116.408 100.754C103.961 96.2508 92.2332 91.4009 85.5463 81.6578C82.3159 76.9504 81.4025 70.5466 80.5972 64.8953C80.4891 64.1384 80.3833 63.3948 80.273 62.6669C80.1661 61.9556 80.0536 61.2477 79.9411 60.5408C79.3696 56.9388 78.7781 53.2143 78.953 49.3929C78.9564 49.3284 79.2471 45.5772 79.7717 42.3413C77.926 40.7384 75.6302 39.6031 73.35 39.425C71.3939 39.2725 69.2496 39.9448 67.6645 41.0835C66.9538 41.5944 66.3467 42.2345 65.8833 42.9747C65.9256 44.1524 66.0036 45.3267 66.0849 46.4799C66.2409 48.6249 66.3968 50.8422 66.2988 53.064Z" fill="#1E2228"/>
<path d="M52.9289 111.158C55.9543 106.439 54.0183 99.8505 52.5814 96.3253C52.2583 97.0287 52.0233 97.73 51.9152 98.4035C51.2346 102.641 51.874 106.874 52.9289 111.158Z" fill="#1E2228"/>
<path d="M181.868 116.69C184.541 115.033 190.935 111.498 193.532 113.685C194.265 113.277 194.935 112.76 195.585 112.252C196.401 111.613 197.234 110.968 198.2 110.531C198.529 109.846 199.127 109.229 199.76 108.577C200.245 108.075 200.747 107.558 201.077 107.041C201.612 106.203 202.116 105.302 202.603 104.431C202.895 103.909 203.185 103.39 203.483 102.881C204.553 101.056 205.798 99.7133 207.226 98.5501C205.748 99.2948 204.162 99.9115 202.601 100.515C201.138 101.081 199.754 101.618 198.505 102.241C196.583 103.2 194.618 104.063 192.717 104.897C189.488 106.314 186.149 107.78 183.047 109.719C182.211 110.243 181.364 110.78 180.509 111.324C175.852 114.284 171.038 117.345 166.032 119.215C162.88 120.392 159.178 120.811 155.509 120.811C151.803 120.811 148.129 120.384 145.085 119.88C129.219 117.255 116.402 113.573 104.748 108.288C97.3819 104.947 88.0616 100.259 81.3212 93.5957C72.7808 85.1549 68.1301 77.3631 65.7719 67.5431C64.736 63.2309 64.9488 58.7773 65.1537 54.4696L65.2216 53.017C65.3163 50.8564 65.1626 48.6713 65.0134 46.5575C64.9309 45.3876 64.8518 44.1933 64.8084 42.9922C64.1356 42.3555 63.4962 41.6787 62.9114 40.9763C61.5212 39.3055 60.3727 37.3253 59.6097 35.2371C59.1374 32.8539 58.449 30.5197 57.4286 28.2846C55.086 23.1531 51.0792 19.3852 45.8371 17.3148C40.4401 15.1832 34.2054 14.3539 28.4297 14.3149C22.6819 14.276 16.7569 15.2433 11.9303 18.5392C8.49713 20.8835 5.83148 24.2629 4.23522 28.0864C3.6181 29.0838 3.04888 30.1056 2.5543 31.1508C1.72665 32.8984 1.05051 34.7362 0.477954 36.5806C-0.0299966 38.2191 -0.436595 39.595 0.922397 40.8995C1.86367 41.8045 2.87958 42.6494 3.94004 43.443C4.50258 43.6178 5.0651 43.7881 5.6243 43.955C6.29154 44.1543 6.95765 44.3524 7.61932 44.5606C8.79563 44.929 9.97528 45.342 11.1627 45.7583C12.7055 46.2993 14.2985 46.8514 15.8914 47.3111L16.083 46.8325C16.1933 46.5553 16.5085 46.4251 16.7836 46.5308C17.061 46.641 17.1958 46.9549 17.0855 47.2321L16.6566 48.3051C16.572 48.5155 16.3693 48.6446 16.1554 48.6446C16.0885 48.6446 16.0206 48.6324 15.956 48.6068C15.8435 48.5622 15.7622 48.4787 15.7031 48.383C14.0445 47.9088 12.3981 47.3345 10.8063 46.7768C9.6311 46.3649 8.46256 45.9564 7.2974 45.5891C7.17041 45.549 7.04232 45.5123 6.91533 45.4733C6.92981 45.4822 6.94317 45.4911 6.95653 45.5C5.76797 45.3286 4.57387 45.195 3.37863 45.116C2.64455 45.0682 2.13101 45.9954 2.52646 46.5998C7.90004 54.8202 15.3656 61.6993 24.3238 65.8234C26.6029 66.8731 28.9544 67.7491 31.3616 68.457C34.1319 69.2718 36.9747 69.9185 39.5924 71.1708C44.6474 73.5885 48.6854 77.6024 52.5663 81.5495C52.7913 81.7788 53.0097 82.0126 53.2302 82.2452C55.3656 83.8837 57.5712 85.4588 59.4314 86.7878L60.9843 87.8998C61.0065 87.9043 61.0277 87.9099 61.0489 87.9154C65.8878 87.9945 70.9528 90.6671 74.0094 94.7778C75.4742 96.748 76.4445 98.9999 77.3824 101.177C77.9683 102.536 78.5465 103.86 79.2215 105.115C82.3917 107.359 85.6333 109.482 88.8848 111.483C98.977 117.697 109.813 122.698 121.254 125.853C138.163 130.516 156.688 130.844 173.62 125.882C174.339 125.007 175.012 124.088 175.663 123.188C177.375 120.821 179.149 118.374 181.868 116.69Z" fill="#1E2228"/>
<path d="M73.1392 95.4203C70.2842 91.5801 65.3507 88.9998 60.8526 88.9887C58.1313 89.5486 54.9989 92.2067 53.2356 95.1008C54.8096 98.6773 57.6579 106.973 53.2835 112.536C53.5174 113.419 53.7591 114.305 54.012 115.194L54.4442 116.71C55.733 121.234 56.9517 125.506 58.1714 129.989C58.5446 131.36 59.0225 132.646 59.5794 133.873C60.2188 135.147 60.8972 136.396 61.6201 137.619C63.0092 139.818 64.6166 141.864 66.2808 143.899C68.5053 146.616 70.9181 148.946 73.8577 151.607C74.7088 152.379 75.5542 153.212 76.3707 154.019C76.3774 154.026 76.3841 154.033 76.3919 154.039C78.3881 155.552 80.4266 157.01 82.6043 158.248C84.0546 159.072 85.5373 159.839 87.0466 160.548C88.4157 161.19 89.9362 162.034 91.4879 162.025C93.288 162.014 95.0213 160.067 94.2504 158.46C94.7339 157.881 94.9032 157.095 94.6258 156.271C94.295 155.286 93.4718 154.775 92.5506 154.496C92.7934 153.755 92.6909 152.913 92.2331 152.166C91.4467 150.881 89.9696 150.59 88.5538 150.588C88.7298 148.815 87.6537 147.072 85.9472 146.499C86.591 143.948 85.3646 141.165 83.002 139.981C84.5403 137.112 83.6191 133.271 80.9657 131.381C81.8735 129.407 82.5753 127.251 82.1365 125.07C81.8123 123.46 80.8955 122.068 79.5399 121.236C81.1283 118.957 80.362 115.849 77.9525 114.504C79.6268 111.878 78.5875 108.19 75.5932 107.104C76.0923 105.918 76.598 104.724 76.9611 103.496C77.087 103.59 77.2162 103.677 77.3432 103.77C77.0102 103.049 76.6949 102.323 76.3841 101.601C75.4741 99.4832 74.5294 97.2904 73.1392 95.4203Z" fill="#1E2228"/>
<path d="M214.566 132.221C214.559 131.969 214.516 131.736 214.453 131.513C214.06 131.177 213.691 130.816 213.367 130.423C213.129 130.134 212.941 129.802 212.758 129.483C212.542 129.103 212.338 128.745 212.073 128.485C211.789 128.207 211.462 128.069 211.084 127.908C210.88 127.822 210.673 127.73 210.464 127.62C210.446 127.61 210.429 127.605 210.411 127.596C210.385 127.582 210.368 127.559 210.346 127.541C210.327 127.527 210.304 127.519 210.286 127.501C210.276 127.491 210.269 127.479 210.259 127.469C210.253 127.46 210.246 127.454 210.239 127.445C209.925 127.113 209.678 126.719 209.444 126.333C209.091 125.753 208.758 125.203 208.214 124.883C207.736 124.602 207.195 124.583 206.621 124.564C206.126 124.547 205.614 124.524 205.103 124.343C205.075 124.348 205.048 124.36 205.018 124.36C205.012 124.36 205.005 124.36 204.999 124.36C204.701 124.35 204.468 124.099 204.479 123.801C204.504 123.107 204.322 122.569 203.923 122.156C203.371 121.584 202.396 121.269 201.18 121.269C200.881 121.269 200.639 121.027 200.639 120.729C200.639 120.712 200.647 120.699 200.648 120.682C199.713 119.063 198.874 118.545 197.111 118.506C197.103 118.512 197.098 118.52 197.09 118.525C197.002 118.579 196.903 118.605 196.808 118.605C196.627 118.605 196.45 118.515 196.347 118.349C196.202 118.113 196.08 117.882 195.967 117.659C195.599 116.95 195.394 116.603 194.769 116.461C194.711 116.45 194.533 116.467 194.416 116.479C194.042 116.517 193.528 116.569 193.185 116.209C192.892 115.902 192.888 115.4 192.933 114.783C192.894 114.742 192.856 114.699 192.831 114.645C192.804 114.588 192.793 114.528 192.787 114.469C191.157 113.228 186.473 115.112 182.438 117.61C179.9 119.182 178.266 121.437 176.537 123.824C176.164 124.339 175.782 124.859 175.392 125.376C175.392 125.382 175.391 125.388 175.391 125.393C175.376 126.03 175.545 126.704 175.736 127.31C175.926 127.907 176.253 128.439 176.624 128.94C176.954 129.928 177.424 130.881 177.883 131.698C182.556 133.125 187.109 136.888 190.181 141.096C196.256 143.272 202.925 143.715 209.311 144.07C211.758 144.206 214.206 144.298 216.655 144.346C217.977 144.372 219.312 144.417 220.643 144.386C222.047 144.529 223.553 144.459 224.729 143.786C225.806 143.171 225.775 141.864 225.031 140.95C224.486 140.281 223.574 140.092 223.092 139.364C222.684 138.747 222.516 138.073 221.989 137.516C221.126 136.603 219.962 136.08 218.735 135.987C218.508 134.782 217.808 133.777 216.862 133.103C216.539 132.937 216.223 132.761 215.917 132.574C215.489 132.394 215.037 132.27 214.566 132.221Z" fill="#1E2228"/>
<path d="M53.4073 117.006L52.9751 115.489C51.3253 109.695 49.9207 104.015 50.8497 98.2322C51.4846 94.2828 55.6674 89.6378 59.5929 88.2319L58.7998 87.6642C56.9897 86.3708 54.8565 84.8447 52.7712 83.2518C50.6481 83.8262 48.3211 83.8707 46.2135 84.3683C44.6239 84.7445 43.2315 85.4358 42.0541 86.3986C42.5209 88.0483 42.5877 89.8137 42.2245 91.6882C41.5484 95.1744 39.5211 98.4415 37.1183 101.011C36.9768 104.273 37.135 107.572 37.5672 110.8C38.6009 118.52 41.2387 125.994 44.7231 132.939C46.4775 136.435 48.4414 139.826 50.5066 143.148C51.6395 144.97 53.7437 148.279 56.2077 146.175C57.4876 145.082 57.8585 143.056 58.1994 141.508C58.6149 139.615 58.8343 137.673 58.9056 135.736C58.9156 135.478 58.9101 135.219 58.9134 134.961C58.2027 133.494 57.5878 131.949 57.1311 130.271C55.9125 125.796 54.6961 121.526 53.4073 117.006Z" fill="#1E2228"/>
<path d="M222.322 129.897C223.525 129.736 225.026 129.58 225.744 128.447C226.328 127.526 226.087 126.418 225.319 125.685C224.308 124.72 223.057 124.932 221.894 124.371C221.251 124.061 220.99 123.285 220.532 122.747C220.124 122.269 219.64 121.858 219.111 121.52C218.234 120.96 217.235 120.654 216.209 120.589C215.893 118.196 213.035 117.61 210.812 117.676C209.96 115.475 207.639 114.019 205.301 114.219C205.012 113.191 204.303 112.32 203.356 111.739C203.324 111.719 203.292 111.707 203.261 111.689C202.489 111.394 201.718 111.143 201.006 111.09C199.018 110.936 197.732 111.94 196.248 113.102C195.556 113.645 194.837 114.198 194.021 114.647C194.018 114.671 194.017 114.69 194.015 114.714C194.002 114.881 193.973 115.232 193.991 115.426C194.083 115.425 194.213 115.413 194.301 115.403C194.534 115.379 194.775 115.354 195.003 115.407C196.146 115.666 196.539 116.425 196.92 117.162C196.964 117.246 197.018 117.337 197.065 117.424C199.294 117.46 200.468 118.18 201.626 120.221C202.93 120.301 204.016 120.701 204.694 121.404C205.192 121.92 205.463 122.573 205.527 123.337C205.868 123.443 206.247 123.468 206.652 123.481C207.303 123.504 208.042 123.53 208.756 123.95C209.534 124.407 209.973 125.131 210.361 125.768C210.57 126.115 210.772 126.435 211 126.681C211.168 126.768 211.337 126.844 211.5 126.914C211.94 127.1 212.395 127.292 212.825 127.714C213.198 128.079 213.449 128.521 213.691 128.947C213.858 129.24 214.017 129.517 214.196 129.734C214.313 129.876 214.442 130.008 214.57 130.142C215.385 130.202 216.202 130.242 217.03 130.245C218.803 130.252 220.569 130.132 222.322 129.897Z" fill="#1E2228"/>
<path d="M178.771 133.128C180.581 135.774 183.306 137.817 186.114 139.307C186.804 139.673 187.509 140.001 188.219 140.309C185.642 137.207 182.274 134.505 178.771 133.128Z" fill="#1E2228"/>
<path d="M80.0345 49.4431C79.8652 53.1542 80.4221 56.6605 81.0103 60.3728C81.1228 61.083 81.2353 61.7942 81.3434 62.5088C81.4536 63.239 81.5606 63.986 81.6686 64.7462C82.4573 70.2784 83.3518 76.5508 86.4385 81.0489C92.9438 90.5283 104.502 95.3002 116.777 99.7427C124.468 102.525 132.418 104.41 139.901 106.103C149.01 108.162 156.274 107.688 164.189 104.517C175.471 99.9942 185.146 92.8101 194.501 85.8609C197.162 83.884 199.883 81.8749 202.649 79.908C202.865 79.4371 202.974 78.9318 202.923 78.3852C202.839 77.5003 201.986 76.2982 201.566 75.4578C201.125 74.5751 200.658 72.7139 199.817 72.1551C199.336 71.8357 198.529 71.8201 197.749 71.8601C197.738 71.8446 197.725 71.8301 197.714 71.8145C198.151 70.5701 198.101 69.3812 196.872 67.7483C195.186 65.5065 193.047 63.4672 191.038 61.497C189.119 59.6136 187.076 56.9844 184.422 56.3656C183.584 56.1696 182.682 56.1251 181.771 56.1273C181.757 54.8773 181.38 53.9857 179.459 52.5865C175.169 49.462 169.827 47.1189 164.857 45.2867C163.062 44.6255 161.131 44.0166 159.22 44.4474C158.784 44.5465 158.318 44.7713 157.85 45.0206C157.69 44.9628 157.53 44.9049 157.37 44.847C157.215 44.3717 156.981 43.9164 156.61 43.499C155.775 42.5595 154.284 41.8772 153.211 41.275C150.62 39.8224 147.504 38.579 144.652 37.7208C142.593 37.1008 140.41 36.9093 138.335 36.3506C137.286 36.0678 136.106 35.3521 135.048 35.4901C134.208 35.6003 133.44 36.3673 132.674 37.024C132.65 37.0173 132.626 37.0106 132.602 37.004C132.41 36.5698 132.151 36.1725 131.782 35.833C131.159 35.2575 129.995 34.9725 129.214 34.642C126.714 33.5823 124.11 32.5259 121.371 32.3734C118.348 32.2053 115.269 32.3545 112.262 32.2164C110.318 32.1274 108.343 32.0194 106.675 33.0535C106.117 33.3997 105.627 34.18 105.118 34.8701C104.171 33.8973 103.098 33.1815 101.793 33.0546C100.335 32.9121 98.7563 33.5756 97.365 33.9663C92.4537 35.3476 89.1542 39.9493 84.1315 40.9756C82.689 41.2705 81.6463 41.2015 80.9791 41.7804C80.5246 44.4663 80.0957 48.0817 80.0345 49.4431Z" fill="#1E2228"/>
<path d="M96.5564 135.242C97.3358 135.242 97.9677 134.611 97.9677 133.832C97.9677 133.053 97.3358 132.421 96.5564 132.421C95.7769 132.421 95.145 133.053 95.145 133.832C95.145 134.611 95.7769 135.242 96.5564 135.242Z" stroke="#1E2228" stroke-miterlimit="10"/>
<path d="M82.8171 15.7678C83.5966 15.7678 84.2285 15.1363 84.2285 14.3574C84.2285 13.5785 83.5966 12.9471 82.8171 12.9471C82.0376 12.9471 81.4058 13.5785 81.4058 14.3574C81.4058 15.1363 82.0376 15.7678 82.8171 15.7678Z" stroke="#1E2228" stroke-miterlimit="10"/>
<path d="M75.7626 31.4985C75.7626 32.2777 75.131 32.9088 74.3513 32.9088C73.5715 32.9088 72.9399 32.2777 72.9399 31.4985C72.9399 30.7193 73.5715 30.0882 74.3513 30.0882C75.131 30.0882 75.7626 30.7193 75.7626 31.4985Z" stroke="#1E2228" stroke-miterlimit="10"/>
<path d="M110.74 147.56C110.74 148.995 109.576 150.157 108.141 150.157C106.705 150.157 105.542 148.994 105.542 147.56C105.542 146.125 106.707 144.963 108.141 144.963C109.576 144.963 110.74 146.126 110.74 147.56Z" stroke="#1E2228" stroke-miterlimit="10"/>
<path d="M62.4691 3.59691C62.4691 5.03172 61.305 6.19383 59.8703 6.19383C58.4344 6.19383 57.2715 5.03061 57.2715 3.59691C57.2715 2.16322 58.4355 1 59.8703 1C61.3061 1 62.4691 2.1621 62.4691 3.59691Z" stroke="#1E2228" stroke-miterlimit="10"/>
</svg>
