<svg width="308" height="273" viewBox="0 0 308 273" fill="none" xmlns="http://www.w3.org/2000/svg">
<path d="M157.044 65.5799C129.364 72.671 110.619 89.6869 93.1987 112.395C84.6697 123.511 71.8482 137.449 70.6256 151.858C68.8473 172.812 88.542 185.924 104.727 192.39C126.276 201 148.538 195.517 171.086 192.965C189.641 190.866 206.545 195.67 224.076 184.866C242.131 173.738 246.373 158.349 249.233 139.403C254.153 106.806 240.094 70.1543 205.507 65.3708C200.024 64.612 169.808 62.5751 157.044 65.5799Z" fill="white"/>
<path d="M196.429 95.6336C184.336 87.9758 170.756 84.6373 159.166 86.4781C149.364 88.0342 140.936 90.9485 134.118 95.1424C133.844 95.3104 133.513 95.4822 133.174 95.6576C133.075 95.7087 132.974 95.7604 132.874 95.8136C132.825 95.9427 132.723 96.0566 132.588 96.1169C132.319 96.2354 132.051 96.356 131.786 96.4781C131.721 96.5324 131.666 96.585 131.623 96.6385C131.485 96.8042 131.272 96.8655 131.095 96.8066C123.054 100.707 116.676 106.897 109.696 114.913C102.84 122.786 97.7543 132.001 95.744 140.196C94.2505 146.285 93.1402 153.414 96.2273 160.12C97.9425 163.846 101.21 167.562 105.936 171.163C109.334 173.751 112.462 174.94 116.421 176.445C117.278 176.771 118.132 177.153 118.958 177.521C120.458 178.192 122.008 178.886 123.617 179.255C124.961 179.565 126.398 179.671 127.788 179.775C128.866 179.856 129.981 179.94 131.064 180.115C138.428 181.312 146.081 180.062 153.929 178.559C164.012 176.629 173.192 171.865 180.063 167.932C187.395 163.734 195.027 159.062 200.7 152.197L200.807 152.068C207.103 144.449 214.937 134.969 215.342 124.937C215.801 113.572 209.615 103.986 196.429 95.6336Z" fill="#1E2228"/>
<path d="M211.849 151.481C214.725 147.28 217.023 142.783 219.244 138.434C219.993 136.969 220.768 135.471 221.562 133.972C221.605 133.854 221.646 133.737 221.688 133.619C221.984 132.276 222.384 130.97 222.777 129.706C223.35 127.867 223.942 125.965 224.189 123.945C225.014 117.203 222.715 109.191 217.356 100.133C216.189 98.1599 214.72 96.3338 213.3 94.5687C212.983 94.1748 212.666 93.7813 212.354 93.3872C212.02 92.9673 211.58 92.5148 211.114 92.0436C209.792 91.1113 208.453 90.2244 207.108 89.4135C206.441 89.2438 205.762 89.0572 205.058 88.8602C204.281 88.6441 203.571 88.2869 202.885 87.9407C202.59 87.7929 202.294 87.6442 201.991 87.5052C197.69 85.5394 194.488 84.277 190.938 83.1475C189.825 82.7923 187.868 82.1012 186.024 81.3917C179.514 80.0813 172.769 79.6156 166.045 79.9436C151.688 80.6439 137.294 84.9744 124.593 92.9959C115.351 98.8322 107.234 106.735 100.937 115.855C100.452 117.311 99.9377 118.757 99.3147 120.215C97.295 124.936 95.2308 129.766 92.6617 134.415C91.6266 136.288 90.497 138.119 89.367 139.905C88.1941 144.333 87.6114 148.851 87.7583 153.316C87.9144 153.936 88.0896 154.556 88.263 155.152C88.5447 156.129 88.8117 157.053 88.9654 157.902C89.5237 160.978 90.4705 163.366 91.9184 166.452C92.3422 167.354 92.577 168.301 92.804 169.218C93.029 170.127 93.2734 171.015 93.5315 171.893C95.1982 174.327 97.1991 176.508 99.5435 178.34C105.423 182.934 112.703 185.332 120.018 186.942C120.462 187.04 120.908 187.129 121.353 187.222C123.038 187.038 124.759 187.085 126.455 187.141C127.103 187.162 127.743 187.184 128.371 187.19C130.691 187.213 132.797 187.491 134.729 187.788C135.733 187.941 136.778 187.952 137.788 187.962C138.925 187.974 140.099 187.985 141.237 188.199C142.331 188.404 143.392 188.748 144.432 189.169C151.124 188.664 157.677 186.95 164.162 184.62C177.885 179.691 191.281 172.606 202.313 162.372C203.798 160.995 205.232 159.549 206.615 158.048C207.297 157.17 208.009 156.315 208.71 155.476C209.848 154.117 210.923 152.833 211.849 151.481ZM201.478 152.684L201.371 152.813C195.588 159.813 187.871 164.539 180.462 168.781C173.53 172.75 164.263 177.559 154.047 179.513C146.122 181.032 138.388 182.293 130.885 181.073C129.841 180.904 128.747 180.821 127.69 180.742C126.267 180.637 124.797 180.527 123.39 180.203C121.701 179.815 120.114 179.105 118.578 178.418C117.764 178.053 116.923 177.677 116.089 177.361C113.681 176.446 111.576 175.645 109.524 174.579C108.151 173.865 106.803 173.032 105.403 171.964C100.57 168.281 97.2191 164.461 95.447 160.608C92.223 153.604 93.4659 145.952 94.9085 140.069C96.9567 131.722 102.123 122.351 109.082 114.357C116.315 106.051 122.92 99.6757 131.395 95.723C131.801 95.4149 132.331 95.1417 132.849 94.8732C133.164 94.7106 133.472 94.5526 133.725 94.3953C140.651 90.1352 149.195 87.1754 159.115 85.6012C170.907 83.7296 184.701 87.1026 196.951 94.8711C210.408 103.396 216.719 113.233 216.245 124.944C215.824 135.321 207.87 144.948 201.478 152.684Z" fill="#1E2228"/>
<path d="M140.355 187.173C139.328 187.162 138.266 187.151 137.215 186.99C135.344 186.701 133.306 186.431 131.076 186.409C130.45 186.402 129.813 186.381 129.168 186.36C127.579 186.306 125.968 186.263 124.402 186.423C123.57 187.124 122.825 187.922 122.425 188.308C120.927 189.757 119.025 191.702 119.615 193.646C117.586 195.292 117.065 198.106 118.442 200.05C115.526 201.503 114.039 204.993 115.058 207.986C112.388 209.113 110.985 212.139 111.989 214.795C109.635 216.278 108.504 219.63 110.177 221.581C109.753 221.89 109.407 222.376 109.193 222.849C108.706 223.929 108.474 225.132 108.353 226.279C108.233 227.407 108.28 228.549 108.481 229.639C108.582 230.185 108.803 230.738 109.039 231.226C109.244 231.648 109.541 232.224 109.974 232.417C110.053 232.452 110.143 232.449 110.229 232.427C110.341 232.445 110.463 232.439 110.592 232.369C118.372 228.159 125.845 223.311 133.078 218.096C135.694 216.209 138.384 214.161 140.624 211.74C140.49 209.07 140.714 206.392 142.128 203.831C143.458 201.421 144.942 199.893 146.686 198.584C146.924 196.675 146.951 194.8 146.592 192.949C146.528 192.617 146.445 192.285 146.364 191.953C146.365 191.41 146.348 190.875 146.305 190.329C146.246 189.597 146.182 188.871 145.991 188.173C145.98 188.135 145.968 188.097 145.958 188.057C145.183 187.774 144.398 187.542 143.599 187.391C142.555 187.194 141.487 187.184 140.355 187.173Z" fill="#1E2228"/>
<path d="M248.44 156.81C248.229 156.639 248.016 156.468 247.806 156.301C246.236 155.048 244.612 153.752 243.255 152.09C242.799 151.531 242.326 150.988 241.853 150.446C240.966 149.429 240.048 148.377 239.257 147.222C237.891 145.231 237.049 143.515 236.439 141.484C236.352 141.194 236.235 140.857 236.108 140.495C235.946 140.031 235.774 139.528 235.624 139.019C234.911 138.756 234.191 138.511 233.477 138.291C232.55 138.005 231.727 137.692 230.731 137.643C229.785 137.596 228.853 137.585 227.899 137.747C226.661 137.957 225.432 138.261 224.217 138.629C223.713 139.601 223.215 140.574 222.728 141.528C220.508 145.88 218.213 150.38 215.32 154.612C215.052 155.003 214.768 155.391 214.476 155.778C214.866 155.817 215.254 155.845 215.632 155.856C215.598 159.095 217.195 162.304 220.098 163.47C219.983 166.522 221.355 169.357 223.923 170.749C223.223 173.626 223.84 176.552 225.692 178.602C225.05 179.676 224.66 180.841 224.64 182.096C224.628 182.861 224.759 183.616 225.016 184.31C225.349 185.208 225.969 185.973 225.911 187.007C225.861 187.896 225.469 188.769 225.346 189.658C225.243 190.401 225.273 191.131 225.438 191.84C225.724 193.062 226.396 194.05 227.305 194.801C226.968 195.724 226.628 196.646 226.282 197.566C225.867 198.665 225.215 199.778 224.982 200.912C224.839 201.612 225.296 202.136 225.842 202.268C226.007 202.391 226.229 202.416 226.451 202.253C226.454 202.252 226.458 202.249 226.461 202.248C226.464 202.245 226.467 202.246 226.47 202.243C226.47 202.243 226.472 202.241 226.474 202.239C226.636 202.175 226.781 202.052 226.913 201.893C232.28 197.677 237.599 193.382 241.626 187.73C245.086 182.874 247.51 177.192 248.524 171.419C249.391 166.491 249.401 161.543 248.44 156.81Z" fill="#1E2228"/>
<path d="M85.6271 107.663C87.4615 108.181 90.482 108.684 91.6355 108.063C88.67 106.36 85.2841 105.438 81.7707 105.378C81.5673 105.375 81.361 105.391 81.156 105.395C82.4038 106.392 83.9069 107.177 85.6271 107.663Z" fill="#1E2228"/>
<path d="M141.961 211.351C142.25 210.998 142.534 210.64 142.801 210.271C144.857 207.432 146.193 204.083 146.797 200.685C145.494 201.787 144.352 203.091 143.326 204.972C142.219 206.999 141.933 209.162 141.961 211.351Z" fill="#1E2228"/>
<path d="M213.964 97.6709C215.409 99.4668 216.905 101.322 218.108 103.357C223.593 112.628 225.941 120.868 225.087 127.853C224.884 129.522 224.462 131.086 224.005 132.6C227.061 131.261 230.162 129.718 233.4 129.299C236.652 128.879 239.837 129.376 243.02 129.662C246.197 129.947 249.278 129.909 252.475 129.105C255.95 128.233 260.276 126.855 262.813 129.901C263.41 130.619 264.556 129.869 264.594 129.021C264.652 127.73 264.377 126.404 263.791 125.3C263.904 125.358 264.014 125.421 264.124 125.485C263.293 123.913 262.248 122.481 261.187 121.188C261.025 120.99 261.062 120.681 261.269 120.498C261.475 120.316 261.776 120.327 261.937 120.524C263.887 122.901 265.83 125.705 266.476 129.093C266.729 129.164 267.006 129.133 267.237 128.944C268.284 128.084 270.979 124.976 271.169 124.747C273.689 121.721 274.719 117.671 275.157 113.941C275.401 111.864 275.9 110.091 276.684 108.118C277.367 106.398 277.72 104.725 277.558 102.933C277.408 101.264 276.944 99.6863 276.454 98.1221C275.899 96.35 275.331 94.5532 274.453 92.9393C272.672 89.6699 269.601 87.391 266.728 85.2055C263.709 82.9094 260.436 80.8088 256.619 80.0262C253.542 79.3961 250.274 79.6498 247.144 80.5244C241.799 82.0186 237.412 85.418 232.566 88.1187C226.336 91.5904 219.534 94.7075 212.674 96.0982C212.789 96.2287 212.917 96.3621 213.018 96.4907C213.331 96.8836 213.647 97.2775 213.964 97.6709Z" fill="#1E2228"/>
<path d="M236.516 141.577C237.112 143.562 237.939 145.247 239.286 147.207C240.068 148.348 240.991 149.407 241.885 150.431C242.375 150.995 242.867 151.557 243.341 152.138C244.574 153.648 246.059 154.871 247.522 156.041C247.459 155.793 247.409 155.541 247.341 155.294C245.733 149.459 243.127 143.492 237.72 140.692C237.149 140.396 236.551 140.131 235.944 139.879C236.02 140.101 236.094 140.319 236.165 140.523C236.299 140.91 236.424 141.267 236.516 141.577Z" fill="#1E2228"/>
<path d="M199.73 89.037C200.046 89.1812 200.354 89.3359 200.661 89.49C201.347 89.8357 201.995 90.1607 202.697 90.3565C202.785 90.3807 202.87 90.4045 202.957 90.4283C204.417 89.6866 205.873 88.8194 207.028 87.609C207.589 87.0206 208.076 86.23 208.555 85.5669C209.08 84.8401 209.597 84.1071 210.111 83.3722C211.424 81.4929 212.467 79.574 213.127 77.5108C210.66 74.2374 209.163 71.0791 208.808 66.2411C208.613 63.583 208.587 59.1176 209.94 54.9741C206.456 48.1229 200.819 42.5865 193.797 39.4909C187.11 36.5428 179.747 36.2566 172.365 36.1381C172.184 36.0906 172.007 36.0809 171.843 36.1296C171.837 36.1292 171.83 36.1298 171.824 36.1294C171.548 36.1256 171.366 36.2968 171.28 36.5139C170.875 36.9781 170.733 37.7172 171.194 38.2238C171.932 39.0373 173.019 39.5593 173.896 40.2249C174.629 40.7819 175.357 41.3442 176.084 41.9102C175.685 43.0815 175.578 44.2953 175.865 45.4787C176.041 46.2055 176.361 46.877 176.797 47.456C177.338 48.175 178.129 48.6801 178.617 49.4386C179.138 50.2486 179.002 51.2457 179.127 52.1933C179.225 52.9402 179.448 53.6431 179.797 54.2879C180.407 55.4149 181.326 56.211 182.436 56.7317C181.842 59.6713 182.712 62.5551 184.679 64.5421C183.157 67.3898 183.341 70.6885 184.894 73.2072C182.991 76.0628 182.489 80.2914 184.029 83.0237C185.728 83.6675 187.461 84.2756 188.484 84.6015C192.096 85.7527 195.356 87.0374 199.73 89.037Z" fill="#1E2228"/>
<path d="M96.6068 116.827C97.12 115.627 97.5547 114.446 97.9596 113.268C97.6887 112.703 97.3699 112.152 96.9618 111.604C95.8173 110.073 94.4583 108.859 92.8671 107.825C92.8348 107.805 92.7998 107.786 92.7675 107.766C92.7081 107.823 92.652 107.884 92.5834 107.936C90.9138 109.186 86.5464 108.051 85.6867 107.811C84.7204 107.539 83.8146 107.181 82.9804 106.748C81.9208 106.197 80.9839 105.517 80.1736 104.741C76.9856 105.063 73.736 106.16 70.7232 107.28C66.6964 108.775 62.7078 110.446 58.7558 112.178C54.094 114.223 49.5038 116.491 45.0039 118.937C44.8337 119.03 44.7473 119.164 44.7194 119.305C44.7059 119.331 44.6878 119.353 44.6797 119.384C44.5524 119.895 44.7805 120.467 44.9582 120.917C45.1692 121.452 45.4538 121.995 45.8042 122.439C46.5106 123.332 47.3689 124.077 48.3143 124.699C49.1919 125.276 50.248 125.819 51.3043 126.014C51.7588 126.097 52.3565 126.071 52.8519 125.886C53.27 128.585 56.4551 129.737 59.0233 128.5C60.3989 130.982 63.4859 131.698 65.9767 129.974C67.5949 132.732 71.0149 133.513 73.9068 131.859C74.4661 134.273 76.9466 135.547 79.3839 134.794C80.3862 136.459 83.0407 136.008 84.8426 135.615C85.4533 135.481 86.5355 135.309 87.5913 135.011C88.4106 133.69 89.2182 132.349 89.9696 130.99C92.533 126.35 94.5116 121.725 96.6068 116.827Z" fill="#1E2228"/>
<path d="M213.809 76.9526C213.974 76.2542 214.101 75.5403 214.169 74.8011C214.451 71.7361 214.138 68.7247 213.619 65.7747C213.088 62.763 212.17 59.8785 210.93 57.1746C209.912 61.0149 210.016 64.9786 210.156 66.8798C210.472 71.1883 211.693 74.0183 213.809 76.9526Z" fill="#1E2228"/>
<path d="M91.2382 163.895C89.7546 160.735 88.783 158.284 88.2047 155.102C88.1277 154.677 88.0172 154.222 87.8899 153.747C85.033 155.267 81.931 157.696 79.8693 159.812C78.9859 160.719 75.9043 163.3 76.3656 164.796C76.8686 166.425 81.1022 165.408 82.4546 165.454C84.4959 165.522 86.5866 166.026 88.5111 166.492C89.754 166.794 90.9301 166.753 92.0996 166.627C92.0892 166.583 92.0755 166.542 92.065 166.498C91.8484 165.625 91.6254 164.721 91.2382 163.895Z" fill="#1E2228"/>
<path d="M215.145 195.013C215.821 195.365 216.692 195.063 217.092 194.339C217.492 193.616 217.268 192.744 216.592 192.392C215.916 192.041 215.044 192.342 214.644 193.066C214.245 193.79 214.469 194.662 215.145 195.013Z" stroke="#1E2228" stroke-miterlimit="10"/>
<path d="M202.448 177.261C203.124 177.613 203.996 177.311 204.396 176.587C204.795 175.864 204.571 174.992 203.895 174.64C203.219 174.289 202.347 174.59 201.948 175.314C201.548 176.038 201.772 176.91 202.448 177.261Z" stroke="#1E2228" stroke-miterlimit="10"/>
<path d="M104.111 95.0766C104.786 95.4282 105.658 95.1266 106.058 94.4028C106.458 93.679 106.234 92.8073 105.558 92.4556C104.882 92.104 104.01 92.4057 103.61 93.1294C103.211 93.8532 103.435 94.725 104.111 95.0766Z" stroke="#1E2228" stroke-miterlimit="10"/>
<path d="M246.925 68.6565C247.601 69.0081 248.473 68.7064 248.873 67.9827C249.273 67.2589 249.049 66.3871 248.373 66.0355C247.697 65.6839 246.825 65.9855 246.425 66.7093C246.025 67.4331 246.249 68.3048 246.925 68.6565Z" stroke="#1E2228" stroke-miterlimit="10"/>
<path d="M205.985 201.68C205.249 203.014 203.643 203.568 202.399 202.921C201.153 202.273 200.742 200.668 201.477 199.336C202.214 198.002 203.819 197.448 205.064 198.095C206.308 198.742 206.72 200.348 205.985 201.68Z" stroke="#1E2228" stroke-miterlimit="10"/>
<path d="M75.979 100.286C77.2237 100.933 78.8293 100.378 79.5652 99.0449C80.3011 97.7122 79.8887 96.107 78.644 95.4595C77.3993 94.812 75.7937 95.3675 75.0578 96.7002C74.3219 98.0329 74.7343 99.6382 75.979 100.286Z" stroke="#1E2228" stroke-miterlimit="10"/>
<path d="M230.812 75.4924C230.075 76.8256 228.47 77.3803 227.225 76.7331C225.98 76.0854 225.569 74.4799 226.304 73.1477C227.04 71.8155 228.646 71.2597 229.89 71.907C231.135 72.5542 231.548 74.1591 230.812 75.4924Z" stroke="#1E2228" stroke-miterlimit="10"/>
</svg>
