<svg width="342" height="316" viewBox="0 0 342 316" fill="none" xmlns="http://www.w3.org/2000/svg">
<ellipse cx="171.331" cy="143.376" rx="134.035" ry="129.081" fill="#636DCE"/>
<path d="M20.1116 147.025C19.7551 127.094 45.9253 120.832 61.5754 124.65C79.6749 129.066 96.2561 138.867 109.944 151.297C121.914 162.167 132.03 174.161 131.435 191.187C130.911 206.135 117.817 214.033 104.705 218.488C93.3027 222.363 80.2736 224.148 68.2441 223.594C54.311 222.952 42.3852 215.21 32.815 205.613C29.6555 202.445 25.6251 199.291 23.1876 195.516C21.0351 192.182 20.1454 189.058 17.38 186.076C11.1686 179.38 8.29713 174.521 7.47811 165.032C6.88773 158.187 11.2069 152.189 14.838 146.681C16.7671 143.755 18.2938 140.114 20.6764 137.471C28.6507 128.626 42.0363 128.073 52.87 129.643" fill="white"/>
<path d="M96.4675 207.501C96.1637 207.657 95.8726 207.807 95.5891 207.954C95.6621 207.993 95.7365 208.03 95.811 208.066C96.6405 209.32 97.9063 210.253 99.2209 210.963C100.827 211.83 102.625 212.423 104.421 212.736C106.482 213.096 108.584 213.055 110.665 213.196C112.816 213.343 114.962 213.495 117.076 213.94C118.061 214.146 119.125 214.649 120.142 214.41C121.004 214.206 121.636 213.478 121.949 212.68C122.639 210.919 121.937 208.94 120.818 207.53C119.603 205.995 117.824 205.051 116.092 204.219C114.514 203.461 112.954 202.69 111.467 201.761C111.172 201.577 110.883 201.383 110.596 201.185C110.357 201.254 110.113 201.328 109.876 201.394C106.457 202.35 100.683 205.327 96.4675 207.501Z" fill="#1E2228"/>
<path d="M27.7106 119.606C28.0979 122.621 29.4403 125.802 31.301 128.117C31.7658 128.695 32.4005 129.38 33.1135 130.006C33.8483 130.027 34.5831 130.07 35.3051 130.09C36.713 130.129 38.1284 129.912 39.5077 129.639C40.8133 129.382 42.0919 128.993 43.3253 128.494C48.3033 126.477 52.6864 122.933 55.3917 118.256C57.044 115.399 58.5391 111.782 57.5517 108.462C57.487 108.246 57.2004 108.088 56.9944 108.236C53.0211 111.076 48.2258 112.247 43.4095 112.517C40.9735 112.654 38.5285 112.545 36.1098 112.235C34.9245 112.083 33.737 111.91 32.5479 111.791C31.3559 111.671 30.0781 111.707 29.0568 112.415C28.6717 112.682 28.3649 113.013 28.0994 113.375C27.9384 114.076 27.7376 114.793 27.4909 115.517C27.4676 116.934 27.5504 118.357 27.7106 119.606Z" fill="#1E2228"/>
<path d="M24.6843 119.964C25.4394 118.626 26.1825 117.004 26.745 115.383C26.7646 114.485 26.827 113.591 26.9398 112.74C26.8737 112.573 26.8045 112.407 26.712 112.248C26.081 111.166 24.9965 110.597 23.8525 110.198C22.7583 109.817 21.6241 109.517 20.5095 109.198C15.988 107.9 11.5289 105.913 7.84674 102.943C5.81987 101.308 4.04797 99.3763 2.71077 97.1359C2.5942 96.9411 2.27682 96.8681 2.11512 97.0592C0.176254 99.353 -0.111043 102.541 0.0311009 105.43C0.16798 108.213 0.837333 110.922 1.93161 113.482C4.07881 118.505 7.97534 122.838 12.8353 125.362C14.0356 125.985 15.3405 126.363 16.5731 126.91C16.5333 127.039 16.5047 127.172 16.4656 127.301C17.0951 127.046 17.6764 126.763 18.1525 126.498C20.7487 125.053 23.19 122.611 24.6843 119.964Z" fill="#1E2228"/>
<path d="M30.715 128.589C28.7709 126.17 27.369 122.847 26.9644 119.701C26.8719 118.979 26.8057 118.197 26.7696 117.392C26.3259 118.442 25.8378 119.452 25.3399 120.334C23.7801 123.096 21.2305 125.646 18.5193 127.154C18.1696 127.349 17.2964 127.808 16.2187 128.205C15.4237 131.122 14.9251 134.125 14.5754 137.123C14.4919 137.839 14.4265 138.558 14.3633 139.278C14.4009 139.589 14.4415 139.902 14.4911 140.215C15.1537 144.427 16.1141 148.497 16.9655 151.924C18.7622 159.15 21.2681 167.604 26.2311 175.501C29.4109 180.56 34.8951 187.504 42.9634 191.851C44.1863 192.51 46.0319 193.375 47.1931 193.719C47.2383 193.733 47.2781 193.755 47.3135 193.783C47.6482 193.487 47.9791 193.207 48.3025 192.95C48.8011 192.553 49.2952 192.134 49.7916 191.712C51.7748 190.033 53.825 188.295 56.4362 187.665C57.4764 187.416 58.3112 187.566 58.9143 188.118C60.5637 189.63 59.9522 193.688 59.5055 196.652C59.3821 197.472 59.2761 198.18 59.2535 198.634C59.3709 198.66 59.4573 198.715 59.5107 198.765C62.9049 199.841 67.7596 200.352 70.9838 199.963C78.6159 199.035 85.2056 197.306 92.3504 194.354C100.671 190.917 107.621 186.767 113.594 181.668C114.702 180.723 115.805 179.733 116.871 178.776C118.083 177.689 119.335 176.565 120.605 175.497C120.871 175.273 121.139 175.04 121.41 174.805C122.98 173.443 124.605 172.033 126.651 171.501C128.53 171.011 130.888 171.152 132.97 171.277C133.439 171.305 133.895 171.332 134.327 171.351C135.15 171.387 135.968 171.43 136.783 171.472C138.282 171.55 139.818 171.636 141.358 171.67C141.494 170.792 141.462 169.837 141.343 168.906C141.528 165.116 139.684 161.24 137.338 158.387C134.435 154.856 130.3 152.56 125.986 151.208C121.138 149.689 116.021 149.501 110.979 149.594C105.625 149.691 100.279 150.307 95.0233 151.328C89.8813 152.327 84.8536 153.783 79.8012 155.146C77.6818 155.718 75.5511 156.278 73.4055 156.766C73.3791 156.587 70.2016 158.025 57.7975 158.229C55.7511 158.07 53.719 157.744 51.7335 157.209C48.316 156.289 45.1573 154.73 42.3911 152.582C41.9068 151.603 41.3999 150.637 41.0321 149.597C40.3417 147.646 40.3673 145.546 39.7137 143.591C37.8824 143.383 37.0446 144.823 36.7317 146.637C36.3963 146.16 36.0653 145.681 35.7307 145.204C34.7439 143.802 34.0979 142.21 33.4045 140.652C32.2756 138.117 31.9214 135.481 32.0733 132.713C32.1177 131.904 32.2034 131.098 32.3095 130.296C31.5318 129.572 30.9512 128.883 30.715 128.589ZM120.068 168.613C121.37 168.008 122.397 168.8 123.144 169.557C123.354 169.77 123.45 170.055 123.4 170.32C123.337 170.66 123.092 170.923 122.713 171.06C122.485 171.142 122.203 171.178 121.906 171.178C121.174 171.178 120.348 170.958 119.998 170.666C119.536 170.281 119.31 169.846 119.364 169.442C119.395 169.198 119.543 168.856 120.068 168.613Z" fill="#1E2228"/>
<path d="M120.48 170.089C120.738 170.303 121.88 170.559 122.457 170.353C122.641 170.286 122.656 170.21 122.661 170.181C122.662 170.17 122.65 170.128 122.608 170.086C121.978 169.447 121.481 169.151 120.99 169.151C120.79 169.151 120.59 169.2 120.384 169.296C120.306 169.331 120.124 169.428 120.109 169.54C120.095 169.648 120.205 169.859 120.48 170.089Z" fill="#1E2228"/>
<path d="M44.3496 196.59C45.1258 195.829 45.9162 195.061 46.6924 194.348C45.483 193.948 43.8081 193.161 42.6056 192.513C34.3928 188.087 28.8214 181.036 25.5935 175.9C20.5741 167.913 18.0456 159.389 16.2346 152.105C15.5344 149.287 14.7643 146.033 14.14 142.622C14.0656 144.383 14.0505 146.147 14.1002 147.91C14.3032 155.154 15.5201 162.386 17.7786 169.275C20.0401 176.173 23.2605 182.841 27.7091 188.602C31.2326 193.164 35.5525 197.071 40.3599 200.243C40.3982 200.215 40.4358 200.193 40.4742 200.163C41.6955 199.19 43.0448 197.869 44.3496 196.59Z" fill="#1E2228"/>
<path d="M58.4656 199.211L57.7737 198.976L58.4912 198.772C58.4942 198.719 58.498 198.665 58.501 198.612C58.5235 198.12 58.6341 197.388 58.7612 196.542C59.135 194.063 59.7592 189.915 58.4055 188.674C57.9926 188.295 57.4052 188.203 56.6125 188.397C54.175 188.985 52.1933 190.664 50.2777 192.288C49.7746 192.713 49.2752 193.137 48.7705 193.538C47.5401 194.518 46.1864 195.845 44.8763 197.128C43.5579 198.419 42.1951 199.754 40.9429 200.752C40.3623 201.214 39.7854 201.51 39.1883 201.649C38.4369 202.178 37.6796 202.698 36.9125 203.207C31.8284 206.58 26.3961 209.931 22.8245 215.007C21.937 216.269 21.1985 217.627 20.6464 219.067C20.0636 220.589 19.8711 222.397 21.0586 223.692C21.5316 224.208 22.2093 224.543 22.9162 224.52C23.821 224.49 24.737 224.055 25.5869 223.774C27.4693 223.152 29.3713 222.596 31.2508 221.964C34.9059 220.735 38.5603 219.502 42.2124 218.265C43.9903 217.664 45.7637 217.043 47.4529 216.217C48.9353 215.493 50.3146 214.594 51.6066 213.572C53.6816 211.928 55.4302 209.998 56.9419 207.89C56.9645 207.896 56.987 207.902 57.0089 207.908C57.1134 207.535 57.2187 207.162 57.3067 206.774C57.9602 203.898 58.3212 201.535 58.4656 199.211Z" fill="#1E2228"/>
<path d="M129.846 187.692C134.548 183.555 139.815 178.798 141.206 172.419C139.7 172.382 138.206 172.3 136.744 172.224C135.93 172.182 135.115 172.14 134.294 172.104C133.857 172.085 133.398 172.057 132.924 172.029C130.899 171.907 128.603 171.77 126.84 172.23C124.964 172.718 123.408 174.069 121.903 175.375C121.629 175.612 121.358 175.847 121.089 176.074C119.829 177.135 118.581 178.255 117.374 179.338C116.304 180.298 115.197 181.291 114.083 182.241C108.048 187.393 101.033 191.583 92.638 195.05C85.4278 198.03 78.7771 199.775 71.0743 200.71C70.323 200.801 69.4866 200.846 68.6007 200.846C65.6067 200.846 62.0553 200.348 59.3681 199.511C59.3185 199.509 59.2606 199.502 59.2072 199.479C59.2057 199.478 59.2049 199.478 59.2034 199.477C59.0478 201.772 58.6822 204.113 58.04 206.942C57.9497 207.341 57.8422 207.724 57.7346 208.107C63.6851 209.771 69.8747 210.588 76.02 210.491C82.3224 210.391 88.5647 209.364 94.6077 207.612C95.0785 207.371 95.5831 207.111 96.1224 206.833C100.367 204.645 106.179 201.647 109.673 200.671C110.891 200.331 112.139 199.952 113.404 199.566C113.444 199.543 113.487 199.522 113.528 199.498C119.35 196.151 124.808 192.125 129.846 187.692Z" fill="#1E2228"/>
<path d="M104.01 140.675C104.01 141.228 103.561 141.677 103.008 141.677C102.454 141.677 102.005 141.228 102.005 140.675C102.005 140.121 102.454 139.672 103.008 139.672C103.561 139.672 104.01 140.121 104.01 140.675Z" stroke="#1E2228" stroke-miterlimit="10"/>
<path d="M112.032 134.658C112.032 135.581 111.284 136.329 110.361 136.329C109.439 136.329 108.69 135.581 108.69 134.658C108.69 133.735 109.439 132.987 110.361 132.987C111.284 132.987 112.032 133.735 112.032 134.658Z" stroke="#1E2228" stroke-miterlimit="10"/>
<path d="M73.593 27.3608C82.4729 16.897 97.3919 12.9238 110.674 16.2931C117.777 18.0951 121.759 22.8355 127.644 26.6418C133.529 30.4481 140.321 30.7745 147.113 30.7098C162.971 30.5586 180.077 23.8403 195.605 29.0199C208.877 33.4466 223.18 42.5994 225.878 57.3147C229.024 74.4682 216.625 87.1731 201.22 92.3143C180.711 99.1582 159.688 102.03 138.113 98.9228C127.841 97.4435 117.424 93.4311 107.707 89.961C100.501 87.3882 92.838 84.9695 86.3596 80.7691C77.3234 74.9119 70.1763 65.0047 67.8223 54.4553C66.1565 46.9871 65.6112 29.5614 75.2649 26.6929" fill="white"/>
<path d="M215.748 32.6118C213.059 33.3368 211.49 34.3822 210.953 35.8082C210.637 36.6467 210.8 37.5583 210.97 38.5232C211.058 39.0188 211.149 39.531 211.17 40.0326C211.475 47.6632 208.068 55.3518 206.01 59.2558C201.77 67.2956 197.028 73.5416 191.512 78.3497C189.117 80.4374 186.374 82.0236 183.722 83.5571C182.874 84.0467 182.026 84.5378 181.188 85.0439C179.959 85.7878 178.237 86.7271 176.924 87.2453C177.389 87.5642 177.85 87.8876 178.301 88.2237C178.885 88.66 179.47 89.0924 180.054 89.5248C181.575 90.6515 183.148 91.8164 184.689 93.0205C185.399 93.5756 186.069 94.1554 186.721 94.7473C191.376 92.8137 195.862 90.41 199.956 87.5431C202.822 85.5366 205.523 83.2578 207.841 80.6307C210.055 78.121 211.92 75.3233 213.506 72.3796C216.714 66.4262 218.848 59.9801 221.191 53.6588C222.387 50.4331 223.638 47.2233 225.124 44.1187C226.65 40.9336 228.695 37.9027 229.639 34.4717C229.994 33.1826 230.132 31.9372 230.016 30.6504C227.636 32.0643 224.437 32.1057 221.32 32.1418C219.263 32.1651 217.321 32.1876 215.748 32.6118Z" fill="#1E2228"/>
<path d="M184.225 93.6124C182.692 92.4144 181.123 91.2524 179.606 90.1288C179.021 89.6956 178.435 89.2624 177.85 88.8254C175.873 87.3491 173.71 86.0517 171.618 84.7958L170.223 83.9512C168.867 83.1179 167.33 82.1732 165.816 82.0108C165.234 81.9476 164.489 81.9597 164.247 82.3695C163.913 82.9321 164.4 84.2768 165.517 85.878C165.928 86.4684 166.346 87.0588 166.765 87.6507C168.266 89.7723 169.819 91.9654 171.142 94.2464C172.072 95.8499 172.629 98.1377 172.92 100.351C173.213 101.457 173.557 102.55 173.978 103.615C174.767 105.613 175.792 107.491 177.133 109.173C178.532 110.928 180.278 112.369 182.151 113.591C184.318 115.003 186.658 116.122 188.99 117.232C189.385 117.42 189.886 117.28 190.008 116.817C191.282 111.992 192.305 106.713 190.63 101.851C189.974 99.9472 188.949 98.2332 187.684 96.7065C186.608 95.6205 185.467 94.5834 184.225 93.6124Z" fill="#1E2228"/>
<path d="M231.653 22.9935C231.173 21.6443 230.081 20.9839 228.702 20.814C227.943 20.7207 227.178 20.7779 226.417 20.7087C226.154 20.6846 225.902 20.65 225.653 20.6102C222.638 18.8759 218.885 18.5066 215.462 18.9541C210.596 19.5896 206.01 21.7278 201.873 24.2901C197.582 26.9495 193.654 30.139 189.633 33.179C185.64 36.1978 181.492 38.9722 177.084 41.3518C168.344 46.0681 158.822 49.3299 149.023 50.9499C147.229 51.247 145.423 51.4861 143.611 51.6681C142.286 50.5024 140.77 49.4863 139.415 48.5019C137.74 47.285 136.238 45.8545 134.688 44.491C133.462 43.414 131.014 41.2428 129.329 40.9344C127.057 40.5178 127.067 45.9711 127.479 47.5061C127.849 48.8869 128.088 50.3415 128.345 51.7975C125.398 51.5463 122.465 51.1334 119.567 50.546C114.763 49.5728 109.988 48.174 105.502 46.187C103.348 45.2326 101.227 44.1248 99.2555 42.8319C98.4402 42.2972 97.634 41.7218 96.8496 41.1172C96.8165 41.051 96.7796 40.9878 96.7466 40.9209C96.4217 40.2628 96.0366 39.613 95.8087 38.9128C95.7237 38.6526 95.6387 38.3954 95.5568 38.1389C93.5871 37.3124 91.6881 36.3309 89.8755 35.0193C86.4009 32.5058 82.821 29.8991 80.1511 26.3049C82.6571 31.4003 83.9476 36.3001 83.995 40.9472C84.004 41.8061 84.0552 42.6574 84.1041 43.481L84.1605 44.4542C84.1642 44.5271 84.1597 44.5986 84.162 44.6715C84.3959 44.9054 84.6222 45.1468 84.8411 45.395C86.234 48.4387 87.772 51.4154 89.4243 54.326C91.5843 56.4672 93.7585 58.6414 95.8704 60.8217C104.572 69.8061 116.202 77.4375 131.424 84.149C137.471 86.8159 144.657 88.542 154.041 89.5813C157.257 89.9378 165.438 90.2702 167.032 89.3339C166.738 88.915 166.443 88.4968 166.15 88.0832C165.73 87.4898 165.312 86.8979 164.899 86.306C164.119 85.1884 162.914 83.1405 163.598 81.9838C163.957 81.3791 164.731 81.1362 165.895 81.261C167.578 81.4415 169.192 82.4335 170.615 83.3082L172.005 84.149C173.409 84.9914 174.84 85.8585 176.234 86.7828C176.277 86.7204 176.333 86.6655 176.41 86.6377C177.695 86.1669 179.519 85.1726 180.798 84.3987C181.64 83.8888 182.493 83.3962 183.345 82.9036C185.966 81.3881 188.677 79.8208 191.017 77.7812C196.461 73.0348 201.148 66.8609 205.343 58.9032C207.366 55.066 210.715 47.5159 210.417 40.0613C210.399 39.61 210.316 39.1452 210.229 38.6534C210.047 37.6313 209.86 36.5731 210.248 35.5412C210.877 33.8724 212.612 32.6758 215.551 31.8846C217.216 31.4356 219.204 31.4123 221.309 31.3882C224.576 31.3506 227.939 31.3108 230.182 29.6351C230.798 28.7635 231.278 27.7993 231.55 26.7637C231.875 25.5401 232.091 24.2224 231.653 22.9935ZM208.659 35.8729C208.568 36.2129 208.325 36.5174 207.992 36.7092C207.759 36.8446 207.506 36.9093 207.265 36.9093C206.861 36.9093 206.49 36.728 206.296 36.3918C205.986 35.8556 206.244 35.1246 206.869 34.7636C207.494 34.4018 208.256 34.5447 208.565 35.0817C208.7 35.3149 208.734 35.5961 208.659 35.8729Z" fill="#1E2228"/>
<path d="M207.602 35.3148C207.488 35.3148 207.36 35.3472 207.245 35.4148C206.987 35.563 206.848 35.8443 206.947 36.0158C207.045 36.1872 207.357 36.206 207.615 36.0586C207.775 35.9676 207.893 35.824 207.932 35.6781C207.948 35.6194 207.958 35.5344 207.914 35.4577C207.86 35.3637 207.741 35.3148 207.602 35.3148Z" fill="#1E2228"/>
<path d="M167.465 89.9536C166.543 90.5222 164.103 90.6967 161.526 90.6967C158.251 90.6967 154.772 90.4207 153.96 90.3304C144.498 89.2828 137.241 87.5372 131.123 84.8379C115.81 78.0858 104.103 70.4025 95.3319 61.3459C93.8683 59.8342 92.3724 58.3248 90.8735 56.8267C94.6798 63.1381 99.1171 69.063 104.205 74.4148C113.65 84.3514 125.299 92.0955 138.362 96.3681C139.049 96.593 139.74 96.8058 140.433 97.0089C141.125 97.0999 141.82 97.2766 142.502 97.4609C143.33 97.6835 144.187 97.9151 144.984 97.952L146.225 98.0069C147.287 98.0528 148.333 98.0979 149.386 98.1724C153.664 98.4739 158.116 98.6514 162.618 98.6973C165.452 98.7266 167.515 98.9154 169.517 99.3283C169.58 99.3411 169.633 99.3727 169.679 99.4118C170.441 99.3118 171.2 99.1959 171.958 99.0688C171.652 97.4105 171.181 95.8108 170.492 94.6233C169.568 93.0304 168.524 91.4751 167.465 89.9536Z" fill="#1E2228"/>
<path d="M149.332 98.9236C148.561 98.8687 147.793 98.8319 147.022 98.7965C146.827 99.2666 146.636 99.7381 146.472 100.22C145.487 103.107 145.129 106.165 145.187 109.207C145.257 112.818 145.86 116.396 146.464 119.949C146.523 120.297 146.991 120.553 147.316 120.432C152.737 118.43 158.326 116.006 162.286 111.641C165.292 108.326 166.959 104.133 167.587 99.7644C166.143 99.5689 164.566 99.4696 162.609 99.4493C158.092 99.4034 153.626 99.226 149.332 98.9236Z" fill="#1E2228"/>
<path d="M79.3208 23.8027C79.6938 24.36 80.0676 24.9173 80.4602 25.4715C83.0849 29.1786 86.7618 31.8379 90.3177 34.41C91.8993 35.5547 93.5614 36.4369 95.2829 37.1927C95.0964 36.464 94.9851 35.7254 95.0656 34.9357C95.216 33.4707 95.9876 32.129 96.4968 30.77C96.9962 29.4373 97.3722 28.0595 97.6234 26.6583C98.1363 23.8049 98.1619 20.8793 97.6753 18.0207C97.1767 15.0913 96.0832 12.3485 94.6903 9.73574C92.9996 6.56421 91.1232 3.49271 89.3949 0.341483C89.2287 0.038394 88.7579 -0.112023 88.4623 0.0970558C84.2266 3.08959 80.7068 7.30877 78.6206 12.0627C77.4992 14.6167 76.8028 17.3355 76.5674 20.0919C76.8314 20.3845 77.0953 20.6823 77.3435 21.0004C78.0618 21.9232 78.7018 22.8784 79.3208 23.8027Z" fill="#1E2228"/>
<path d="M83.2442 40.9554C83.1788 34.5958 80.7203 27.7308 75.9333 20.5131C75.8904 20.4664 75.8483 20.4183 75.8061 20.3724C75.5595 20.2649 75.3173 20.1498 75.0653 20.0528C70.0377 18.1064 64.4535 18.0049 59.2611 19.3496C56.2099 20.14 53.2114 21.4118 50.5663 23.1333C50.1729 23.3898 50.1414 23.8568 50.4287 24.2043C52.5796 26.8087 54.629 29.4967 56.783 32.0989C58.7151 34.4326 60.854 36.5444 63.4209 38.1757C65.817 39.6979 68.508 40.7967 71.2786 41.4104C72.6858 41.7218 74.1245 41.9135 75.5647 41.976C77.0937 42.0414 78.6926 41.791 80.1953 42.1444C81.4611 42.4423 82.4147 43.1755 83.3804 43.9743L83.3548 43.5275C83.3044 42.6942 83.2525 41.8331 83.2442 40.9554Z" fill="#1E2228"/>
<path d="M200.611 12.6537C200.98 12.6537 201.28 12.3544 201.28 11.9851C201.28 11.6159 200.98 11.3165 200.611 11.3165C200.242 11.3165 199.943 11.6159 199.943 11.9851C199.943 12.3544 200.242 12.6537 200.611 12.6537Z" stroke="#1E2228" stroke-miterlimit="10"/>
<path d="M229.357 60.787C229.357 61.1563 229.058 61.4556 228.689 61.4556C228.32 61.4556 228.02 61.1563 228.02 60.787C228.02 60.4177 228.32 60.1184 228.689 60.1184C229.058 60.1184 229.357 60.4177 229.357 60.787Z" stroke="#1E2228" stroke-miterlimit="10"/>
<path d="M209.302 5.29999C209.302 6.40781 208.404 7.30579 207.296 7.30579C206.188 7.30579 205.29 6.40781 205.29 5.29999C205.29 4.19217 206.188 3.29419 207.296 3.29419C208.404 3.29419 209.302 4.19217 209.302 5.29999Z" stroke="#1E2228" stroke-miterlimit="10"/>
<path d="M195.932 3.29489C196.67 3.29489 197.269 2.6962 197.269 1.95768C197.269 1.21917 196.67 0.620483 195.932 0.620483C195.193 0.620483 194.594 1.21917 194.594 1.95768C194.594 2.6962 195.193 3.29489 195.932 3.29489Z" stroke="#1E2228" stroke-miterlimit="10"/>
<path d="M96.6571 240.618C90.3509 249.012 88.1856 261.994 88.2563 272.252C88.3263 282.417 92.8342 289.188 100.262 295.71C114.858 308.526 136.805 310.212 155.436 311.072C169.747 311.733 184.935 315.181 198.915 311.345C209.861 308.342 221.976 302.305 228.108 292.417C243.436 267.7 216.665 250.309 194.295 247.499C176.841 245.306 159.122 246.03 141.886 242.363C132.466 240.359 122.803 237.564 113.175 236.923C108.401 236.606 97.431 236.107 96.3224 242.622" fill="white"/>
<path d="M219.851 292.625L217.714 292.815C215.9 292.973 214.088 293.135 212.277 293.296C199.459 294.438 186.204 295.618 173.029 295.618C161.851 295.618 152.826 295.305 144.629 294.63C136.333 293.949 126.658 292.821 117.806 289.628C114.784 288.538 104.528 284.392 99.442 276.831C98.7072 275.74 97.9687 274.544 97.5393 273.194C97.4656 272.961 97.4137 272.703 97.361 272.438C97.3046 272.152 97.2467 271.877 97.1617 271.627C97.009 271.747 96.8391 271.847 96.6947 271.929C95.6425 272.535 94.5287 272.93 93.4517 273.313L93.129 273.427C92.3281 273.714 91.5376 274.062 90.7728 274.399C90.3479 274.586 89.9229 274.773 89.4942 274.951C89.3905 274.994 89.2867 275.029 89.1836 275.068C89.1671 275.076 89.1543 275.089 89.1362 275.095C89.0986 275.108 89.0633 275.115 89.0257 275.127C88.2706 275.399 87.517 275.587 86.7273 275.778C86.4205 275.851 86.1114 275.925 85.7985 276.007C84.8133 276.262 83.8311 276.549 82.8473 276.837C80.9724 277.386 79.0343 277.953 77.0796 278.286L76.8322 278.33C76.2937 278.427 75.5085 278.569 74.7579 278.569C73.7306 278.569 72.7664 278.304 72.5799 277.298C72.3806 276.22 73.2478 274.937 74.0096 273.949C72.7333 274.908 71.7511 276.233 71.1149 277.715C71.0058 277.968 70.999 278.221 71.0863 278.434C71.3442 278.481 71.5969 278.554 71.8444 278.63C72.0061 278.678 72.1655 278.728 72.3212 278.765C72.6837 278.851 73.0612 278.876 73.4614 278.903C73.6321 278.915 73.8028 278.926 73.9728 278.942C74.9535 279.039 76.0252 278.968 77.3474 278.728C78.3634 278.545 79.369 278.271 80.3414 278.008C81.4876 277.697 82.6721 277.376 83.8957 277.192C84.1063 277.16 84.2928 277.302 84.3237 277.507C84.3545 277.712 84.2131 277.904 84.0078 277.935C82.827 278.112 81.6628 278.428 80.5377 278.733C79.5502 279 78.5281 279.278 77.4812 279.468C76.493 279.647 75.6334 279.734 74.8414 279.734C74.518 279.734 74.2052 279.719 73.9006 279.691C73.7374 279.674 73.5734 279.664 73.4102 279.652C73.2696 279.643 73.1259 279.631 72.9823 279.618C76.8939 282.621 79.8465 286.565 83.4693 289.915C87.3192 293.474 91.8272 296.186 96.6134 298.279C97.085 298.436 97.5468 298.636 97.9988 298.84C98.2537 298.955 98.5012 299.066 98.7448 299.166C98.7621 299.173 98.7802 299.179 98.7975 299.186C99.0382 299.284 99.2758 299.372 99.5127 299.439C100.029 299.585 100.571 299.698 101.095 299.808C101.494 299.892 101.894 299.976 102.288 300.074C103.613 300.402 104.962 300.766 106.299 301.153C108.442 301.773 110.678 302.204 112.841 302.62C114.583 302.955 116.384 303.302 118.131 303.746C118.525 303.847 118.913 303.94 119.297 304.032C119.806 304.155 120.306 304.279 120.802 304.411C122.274 304.571 123.749 304.707 125.225 304.807C124.533 302.407 122.94 300.347 121.45 298.571C121.366 298.47 121.198 298.296 120.982 298.071C119.523 296.546 118.105 294.976 118.191 293.999C118.214 293.749 118.329 293.542 118.525 293.398C119.485 292.7 121.183 293.608 122.308 294.21C122.475 294.298 122.621 294.377 122.738 294.434C124.509 295.301 126.386 295.893 127.989 296.358C130.682 297.139 132.859 297.83 134.838 298.536L134.929 298.567C136.851 299.25 138.838 299.956 140.555 301.147C142.087 302.209 143.442 303.225 144.698 304.252C144.845 304.373 144.981 304.505 145.123 304.63C155.061 303.865 164.924 302.238 174.715 300.393C188.062 297.876 201.36 294.972 214.869 293.426C221.289 292.691 227.728 292.475 234.17 292.035C234.941 291.982 235.713 291.924 236.487 291.859C230.969 291.638 225.365 292.131 219.851 292.625Z" fill="#1E2228"/>
<path d="M93.764 270.731C93.7331 270.599 93.7016 270.482 93.6707 270.359C93.1142 270.384 92.5599 270.435 92.0522 270.486C92.2177 270.828 92.3185 271.206 92.4035 271.557C92.4456 271.729 92.4855 271.898 92.5336 272.051C92.5592 272.133 92.5832 272.238 92.608 272.35C92.6329 272.461 92.678 272.66 92.7254 272.777C92.7765 272.758 92.8261 272.735 92.8773 272.717L93.2007 272.602C93.5436 272.481 93.8888 272.355 94.2325 272.226C94.0189 271.797 93.8866 271.26 93.764 270.731Z" fill="#1E2228"/>
<path d="M90.3989 272.417C90.4575 272.623 90.5162 272.827 90.5771 273.026C90.6034 273.111 90.6237 273.207 90.6433 273.305C90.6598 273.387 90.6877 273.522 90.72 273.602C91.1472 273.414 91.5826 273.231 92.0249 273.052C91.9572 272.883 91.9135 272.694 91.8737 272.516C91.8534 272.426 91.8353 272.341 91.8143 272.276C91.7624 272.107 91.7173 271.924 91.6714 271.736C91.5661 271.3 91.451 270.86 91.2246 270.569C91.0268 270.587 90.8403 270.602 90.6704 270.61C90.3853 270.625 90.092 270.643 89.804 270.66C90.0559 271.225 90.2304 271.828 90.3989 272.417Z" fill="#1E2228"/>
<path d="M252.47 273.163C255.158 274.408 258.001 275.784 260.613 277.698C261.569 278.398 262.546 278.93 263.555 279.429C263.719 279.28 263.874 279.121 264.01 278.94C264.28 278.578 264.468 278.159 264.836 277.88C265.239 277.577 265.765 277.405 266.228 277.215C269.103 276.028 272.489 274.602 272.924 271.185C272.981 271.104 272.988 271.003 272.959 270.907C272.961 270.888 272.965 270.871 272.966 270.852C272.97 270.798 272.929 270.765 272.883 270.757C272.802 270.661 272.678 270.605 272.536 270.648C270.246 271.337 267.848 271.338 265.508 270.932C263.165 270.525 260.891 269.799 258.545 269.411C256.542 269.078 254.502 268.989 252.523 269.511C251.67 269.735 250.793 270.06 250.055 270.551C249.685 270.798 249.326 271.084 249.024 271.412C249.337 271.574 249.649 271.731 249.961 271.895C250.777 272.326 251.621 272.769 252.47 273.163Z" fill="#1E2228"/>
<path d="M144.225 304.831C142.984 303.817 141.645 302.813 140.13 301.763C138.494 300.629 136.555 299.94 134.679 299.273L134.588 299.241C132.622 298.542 130.459 297.854 127.781 297.079C126.148 296.604 124.232 296 122.409 295.108C122.286 295.047 122.132 294.965 121.956 294.871C121.174 294.453 119.547 293.584 118.971 294.004C118.879 294.782 120.804 296.792 121.528 297.549C121.759 297.79 121.938 297.978 122.029 298.086C123.734 300.12 125.564 302.521 126.141 305.421C128.797 309.156 132.614 312.087 136.842 313.786C138.348 314.392 139.949 314.784 141.555 315.013C142.288 315.118 143.049 315.198 143.81 315.215C143.856 315.217 143.901 315.218 143.947 315.219C144.105 315.221 144.264 315.218 144.423 315.213C144.448 315.212 144.472 315.213 144.498 315.212C144.502 315.212 144.507 315.212 144.511 315.212C144.849 315.199 145.184 315.169 145.515 315.121C146.807 314.957 148.076 314.623 149.331 314.29C149.589 314.221 149.705 313.961 149.658 313.713C149.078 310.643 147.514 308.095 145.463 305.938C145.064 305.556 144.654 305.183 144.225 304.831Z" fill="#1E2228"/>
<path d="M117.947 304.473C116.223 304.035 114.432 303.69 112.701 303.357C110.521 302.938 108.268 302.504 106.091 301.874C105.766 301.78 105.439 301.692 105.113 301.6C105.29 302.195 105.482 302.783 105.716 303.354C107.391 307.443 110.777 310.919 114.73 312.869C115.842 313.417 117.045 313.818 118.252 314.095C119.236 314.322 120.311 314.499 121.337 314.402C122.346 314.356 123.352 314.175 124.342 314.002C124.526 313.97 124.705 313.739 124.686 313.551C124.477 311.468 123.719 309.357 122.463 307.674C121.725 306.686 120.885 305.796 119.981 304.973C119.696 304.903 119.413 304.832 119.123 304.763C118.737 304.668 118.345 304.574 117.947 304.473Z" fill="#1E2228"/>
<path d="M77.5798 275.641C76.5608 275.217 75.7591 274.569 75.0709 273.813L74.9716 273.94C74.2902 274.799 73.1486 276.237 73.3201 277.16C73.5066 278.166 75.744 277.762 76.6992 277.589L76.9541 277.543C78.6305 277.258 80.3091 276.791 81.9479 276.314C80.5303 276.302 78.9524 276.212 77.5798 275.641Z" fill="#1E2228"/>
<path d="M77.8693 274.946C77.9122 274.964 77.9581 274.977 78.0017 274.994C77.8957 274.871 77.7949 274.75 77.7061 274.641L77.658 274.582C77.2459 274.077 76.9112 273.53 76.6036 273.012L76.5201 272.872C76.0689 272.116 75.4709 271.103 75.4093 270.184C74.691 269.998 73.9871 269.776 73.3042 269.503C73.5546 270.032 73.7908 270.569 74.0285 271.104C75.0107 272.698 76.1125 274.215 77.8693 274.946Z" fill="#1E2228"/>
<path d="M89.9079 273.456C89.8929 273.382 89.8786 273.31 89.859 273.247C89.7966 273.043 89.7364 272.834 89.6763 272.624C89.4875 271.966 89.2875 271.293 88.9896 270.706C88.8806 270.713 88.7745 270.718 88.6655 270.725C88.1278 270.756 87.5863 270.789 87.0417 270.818C87.1019 271.01 87.2034 271.231 87.2997 271.435C87.3877 271.621 87.4712 271.799 87.5261 271.955L87.6968 272.446C87.8209 272.807 87.945 273.17 88.0826 273.525C88.142 273.68 88.2067 273.866 88.2706 274.053C88.3278 274.22 88.3835 274.375 88.4361 274.516C88.5519 274.483 88.6662 274.453 88.7836 274.415C88.925 274.364 89.0664 274.314 89.207 274.256C89.4845 274.141 89.759 274.019 90.0343 273.899C89.9711 273.751 89.9358 273.595 89.9079 273.456Z" fill="#1E2228"/>
<path d="M79.812 271.861C79.9248 272.081 80.0323 272.292 80.115 272.483C80.3557 273.038 80.6513 273.592 80.9371 274.127L81.022 274.286C81.0709 274.378 81.1213 274.483 81.174 274.591C81.3688 274.997 81.6117 275.503 81.9418 275.524C81.9945 275.527 82.0434 275.541 82.0878 275.563C82.1554 275.563 82.2246 275.565 82.2908 275.565C82.6187 275.57 82.9286 275.536 83.2392 275.485C82.5646 274.056 81.7914 272.544 80.925 270.974C80.9168 270.959 80.916 270.943 80.91 270.927C80.3858 270.907 79.8646 270.873 79.3472 270.829C79.4547 271.159 79.6405 271.525 79.812 271.861Z" fill="#1E2228"/>
<path d="M84.0042 275.337C84.029 275.332 84.0531 275.327 84.0786 275.322C84.4457 275.246 84.8119 275.172 85.1819 275.122L85.3068 275.105C85.2572 274.962 85.2083 274.805 85.1549 274.614C85.1188 274.484 85.0864 274.368 85.0586 274.292C84.8826 273.828 84.7405 273.335 84.6043 272.859C84.4163 272.203 84.2133 271.534 83.9297 270.945C83.2085 270.961 82.488 270.966 81.7705 270.952C82.6016 272.475 83.3536 273.949 84.0042 275.337Z" fill="#1E2228"/>
<path d="M80.4964 274.917C80.449 274.819 80.4047 274.724 80.3595 274.641L80.2746 274.482C79.9812 273.934 79.6782 273.367 79.4255 272.782C79.3487 272.605 79.248 272.409 79.1427 272.203C78.9073 271.744 78.6546 271.232 78.5561 270.751C77.7543 270.661 76.9631 270.535 76.1877 270.367C76.3216 271.066 76.8157 271.9 77.1647 272.486L77.2489 272.628C77.5422 273.121 77.8604 273.642 78.2394 274.106L78.2883 274.166C78.6741 274.638 79.257 275.352 79.8331 275.402C79.894 275.407 79.9474 275.429 79.9963 275.459C80.2715 275.49 80.5476 275.512 80.8228 275.528C80.6942 275.325 80.5882 275.109 80.4964 274.917Z" fill="#1E2228"/>
<path d="M85.3255 272.651C85.4647 273.134 85.5955 273.59 85.7602 274.025C85.7948 274.115 85.8347 274.256 85.8783 274.412C85.9219 274.568 86.0032 274.854 86.0694 275.001C86.5988 274.926 87.1418 274.834 87.7029 274.707C87.6555 274.578 87.6074 274.438 87.5585 274.297C87.4976 274.119 87.4374 273.943 87.381 273.797C87.2396 273.432 87.1125 273.061 86.9854 272.691L86.8169 272.205C86.7695 272.07 86.6958 271.917 86.6199 271.756C86.4853 271.472 86.3393 271.16 86.2724 270.857C85.767 270.882 85.2594 270.904 84.7517 270.921C84.9871 271.48 85.1601 272.072 85.3255 272.651Z" fill="#1E2228"/>
<path d="M95.5995 266.769C94.8752 266.769 94.8752 266.975 94.8752 267.099C94.8752 267.222 94.8752 267.428 95.5995 267.428C96.2869 267.428 96.5727 267.186 96.5727 267.057C96.5727 266.966 96.3275 266.769 95.5995 266.769Z" fill="#1E2228"/>
<path d="M257.271 282.998C257.996 282.085 260.094 279.46 262.653 279.815C261.812 279.379 260.988 278.903 260.169 278.304C257.613 276.43 254.808 275.074 252.154 273.846C251.286 273.444 250.434 272.994 249.609 272.559C249.034 272.256 248.459 271.953 247.878 271.665C247.702 271.578 247.52 271.5 247.339 271.42C244.367 270.803 241.361 270.353 238.382 270.034C231.423 269.29 224.427 269.917 217.45 269.981C216.745 269.987 216.039 269.986 215.334 269.99C215.356 269.942 215.374 269.892 215.396 269.844C215.66 269.294 216.139 268.892 216.421 268.347C216.874 267.475 216.79 266.978 215.761 267.16C214.438 267.395 213.154 268.03 211.876 268.458C210.045 269.071 208.112 269.466 206.183 269.632C205.257 269.711 204.328 269.77 203.399 269.83C196.067 269.569 188.749 268.957 181.529 267.673C168.518 265.36 156.05 260.868 143.433 257.061C129.318 252.803 114.707 249.077 99.8496 249.502C96.1531 249.608 92.4566 249.944 88.8082 250.551C86.8949 250.869 84.9989 251.27 83.1142 251.726C81.8026 252.044 80.4661 252.216 79.1575 252.548C74.6315 253.698 69.1345 255.845 68.493 261.147C68.3433 262.385 68.5253 263.613 68.9217 264.791C68.9563 264.894 69.0059 264.979 69.0608 265.056C69.227 265.548 69.4632 266.013 69.7452 266.437C74.7488 270.791 82.0087 270.366 88.621 269.973C89.2986 269.933 89.9702 269.894 90.6328 269.86C90.9697 269.842 91.3706 269.801 91.8068 269.756C93.6479 269.566 95.938 269.332 97.1774 270.325C97.8099 270.831 97.9633 271.607 98.0994 272.292C98.1461 272.529 98.1912 272.759 98.2574 272.967C98.6575 274.226 99.3637 275.366 100.068 276.412C104.008 282.269 111.947 286.714 118.063 288.92C126.832 292.084 136.445 293.203 144.692 293.882C152.868 294.553 161.873 294.867 173.031 294.867C186.173 294.867 199.41 293.688 212.211 292.548C214.022 292.387 215.836 292.225 217.65 292.066L219.785 291.877C226.717 291.257 233.789 290.635 240.684 291.419C244.512 290.931 248.302 290.16 251.914 288.809C252.547 288.572 253.167 288.307 253.78 288.027C254.313 287.306 254.814 286.554 255.303 285.81C255.923 284.864 256.565 283.885 257.271 282.998ZM95.5995 268.18C94.3789 268.18 94.1232 267.592 94.1232 267.099C94.1232 266.605 94.3789 266.016 95.5995 266.016C97.2007 266.016 97.3248 266.813 97.3248 267.056C97.3248 267.616 96.7916 268.18 95.5995 268.18Z" fill="#1E2228"/>
<path d="M275.158 291.682C275.156 291.566 275.103 291.447 274.979 291.341C274.273 290.738 273.48 290.27 272.796 289.628C272.115 288.99 271.487 288.298 270.871 287.597C269.678 286.237 268.527 284.813 267.22 283.559C265.933 282.325 264.462 281.331 262.826 280.624C261.311 280.248 259.685 281.172 257.859 283.467C257.175 284.327 256.542 285.291 255.931 286.223C255.674 286.613 255.415 287.006 255.149 287.397C255.692 287.878 256.22 288.375 256.74 288.882C258.153 290.261 259.809 291.434 261.629 292.212C263.496 293.01 265.451 293.268 267.469 293.147C270.017 292.994 272.526 292.456 275.059 292.168C275.306 292.138 275.419 291.762 275.158 291.682Z" fill="#1E2228"/>
<path d="M94.446 270.346C94.4633 270.418 94.4799 270.488 94.4972 270.562C94.6115 271.053 94.7424 271.596 94.9341 271.949C95.3952 271.757 95.8457 271.55 96.2661 271.308C96.424 271.218 96.6594 271.08 96.7655 270.977C96.7444 270.958 96.7309 270.931 96.7075 270.913C96.1931 270.5 95.3561 270.362 94.446 270.346Z" fill="#1E2228"/>
<path d="M56.8801 257.665C56.8801 258.219 56.4311 258.668 55.8775 258.668C55.324 258.668 54.875 258.219 54.875 257.665C54.875 257.112 55.324 256.663 55.8775 256.663C56.4311 256.662 56.8801 257.111 56.8801 257.665Z" stroke="#1E2228" stroke-miterlimit="10"/>
<path d="M67.5761 247.637C67.5761 248.56 66.8278 249.308 65.905 249.308C64.9822 249.308 64.2339 248.56 64.2339 247.637C64.2339 246.714 64.9822 245.966 65.905 245.966C66.8278 245.966 67.5761 246.714 67.5761 247.637Z" stroke="#1E2228" stroke-miterlimit="10"/>
<path d="M52.5346 244.295C52.5346 245.403 51.6366 246.301 50.5288 246.301C49.4209 246.301 48.5229 245.403 48.5229 244.295C48.5229 243.187 49.4209 242.289 50.5288 242.289C51.6366 242.289 52.5346 243.187 52.5346 244.295Z" stroke="#1E2228" stroke-miterlimit="10"/>
<path d="M196.934 247.972C196.934 249.08 196.036 249.978 194.928 249.978C193.821 249.978 192.923 249.08 192.923 247.972C192.923 246.864 193.821 245.966 194.928 245.966C196.036 245.966 196.934 246.864 196.934 247.972Z" stroke="#1E2228" stroke-miterlimit="10"/>
<path d="M186.572 253.988C186.572 254.358 186.273 254.657 185.904 254.657C185.534 254.657 185.235 254.358 185.235 253.988C185.235 253.619 185.534 253.32 185.904 253.32C186.273 253.32 186.572 253.619 186.572 253.988Z" stroke="#1E2228" stroke-miterlimit="10"/>
<path d="M203.285 166.747C202.699 162.507 208.568 157.742 211.344 155.382C218.297 149.474 226.325 146.863 235.038 144.687C249.021 141.195 262.983 137.635 277.154 134.984C290.119 132.559 300.645 134.25 311.268 142.697C322.209 151.399 324.729 162.784 318.892 175.52C312.997 188.384 297.607 196.439 286.597 204.526C277.702 211.058 266.459 216.017 255.69 218.59C246.647 220.751 236.581 218.839 227.849 216.413C219.794 214.175 213.393 212.399 207.689 205.763C196.133 192.319 201.227 176.621 206.962 161.733" fill="white"/>
<path d="M341.19 105.167C338.21 106.744 334.782 106.692 331.506 106.511C328.525 106.347 325.57 106.151 322.598 106.553C319.699 106.944 316.868 107.802 314.225 109.055C309.505 111.293 305.357 114.861 302.747 119.41C302.754 119.447 302.76 119.486 302.767 119.523L302.893 120.209C303.23 122.067 303.67 123.956 304.095 125.782C304.469 127.388 304.856 129.047 305.175 130.698C305.382 131.764 305.69 132.803 306.063 133.823C306.421 132.727 306.901 131.678 307.781 130.914C308.985 129.87 310.614 129.595 312.152 129.465C313.728 129.332 315.31 129.309 316.884 129.14C318.567 128.96 320.24 128.681 321.881 128.263C325.019 127.464 328.034 126.166 330.633 124.215C331.908 123.259 333.072 122.144 334.064 120.897C335.183 119.49 336.019 117.895 336.815 116.291C338.535 112.826 340.24 109.354 341.952 105.885C342.168 105.448 341.605 104.948 341.19 105.167Z" fill="#1E2228"/>
<path d="M249.662 209.859C249.236 208.822 248.772 207.824 248.263 206.84C248.246 206.839 248.229 206.838 248.213 206.835C248.158 206.832 248.056 206.826 247.935 206.819C247.636 206.802 247.221 206.777 247.044 206.759C246.317 206.686 245.539 206.601 244.716 206.438C241.648 205.831 238.588 204.916 235.627 204.031C234.623 203.731 233.621 203.431 232.619 203.143C225.789 201.18 216.115 197.433 208.819 190.722C207.36 189.38 206.082 187.879 204.846 186.428C204.274 185.755 203.699 185.081 203.103 184.416L202.842 184.121C202.068 183.24 201.185 182.214 200.113 182.287C199.046 182.333 197.908 182.751 196.809 183.157C196.251 183.362 195.676 183.574 195.123 183.731C193.226 184.269 191.226 184.558 189.292 184.836C188.774 184.911 188.258 184.985 187.747 185.064C186.752 185.218 185.779 185.227 184.832 185.127C184.414 185.509 184.17 186.032 184.296 186.63C184.442 187.321 184.991 187.897 185.422 188.427C186.475 189.722 187.62 190.937 188.828 192.086C191.295 194.432 194.04 196.469 196.924 198.271C202.785 201.933 209.189 204.792 215.721 207.021C222.32 209.274 229.157 210.846 236.076 211.707C240.905 212.308 245.789 212.556 250.66 212.449C250.416 211.699 250.115 210.96 249.815 210.232L249.662 209.859Z" fill="#1E2228"/>
<path d="M301.765 119.338C301.75 119.197 301.734 119.056 301.718 118.915C300.654 117.319 299.404 115.839 298.012 114.549C293.923 110.758 288.666 108.246 283.163 107.376C280.126 106.896 277.096 107.067 274.038 107.153C270.91 107.24 267.577 107.193 264.77 105.627C264.312 105.371 263.657 105.755 263.918 106.317C265.648 110.038 267.345 113.777 269.115 117.479C269.83 118.973 270.623 120.432 271.65 121.736C272.636 122.989 273.801 124.108 275.068 125.074C277.724 127.1 280.842 128.454 284.069 129.272C285.781 129.706 287.522 130.009 289.278 130.206C290.98 130.396 292.71 130.404 294.397 130.713C295.938 130.994 297.366 131.651 298.246 132.994C298.771 133.795 299.062 134.715 299.308 135.643C300.324 133.656 300.862 131.185 301.262 128.705C301.643 126.335 302.11 122.786 301.765 119.338Z" fill="#1E2228"/>
<path d="M238.289 163.885C241.115 164.774 244.038 165.694 246.926 166.562C247.174 166.637 247.442 166.724 247.715 166.813C248.296 167.003 248.897 167.198 249.394 167.299C249.505 167.185 249.618 167.073 249.726 166.956C252.754 163.695 255.202 159.953 257.998 156.502C258.21 156.24 258.094 155.728 257.742 155.639C256.241 155.258 254.959 154.519 253.689 153.655C252.545 152.876 251.378 152.097 249.997 151.826C248.008 151.435 246.022 152.251 244.458 153.438C242.542 154.892 241.13 156.929 239.861 158.943C238.914 160.446 238.027 161.989 237.079 163.493C237.409 163.605 237.738 163.712 238.063 163.815L238.289 163.885Z" fill="#1E2228"/>
<path d="M285.288 195.632C282.266 198.162 271.462 203.154 267.179 203.951C267.466 204.113 267.762 204.263 268.044 204.432C269.561 205.341 271.088 206.276 272.587 207.205C272.943 207.426 273.288 207.66 273.627 207.901C274.273 207.602 274.915 207.291 275.547 206.953C280.697 204.195 285.241 200.433 289.135 196.094C293.102 191.674 296.381 186.659 299.03 181.35C300.573 178.259 301.888 175.058 302.995 171.785C302.482 172.662 301.974 173.547 301.495 174.443C296.452 183.864 291.303 190.596 285.288 195.632Z" fill="#1E2228"/>
<path d="M197.14 179.612C196.727 179.612 196.52 179.8 196.52 179.845C196.52 179.89 196.727 180.078 197.14 180.078C197.554 180.078 197.761 179.89 197.761 179.845C197.761 179.8 197.555 179.612 197.14 179.612Z" fill="#1E2228"/>
<path d="M303.363 125.954C303.11 124.87 302.861 123.764 302.622 122.654C302.565 124.997 302.268 127.189 302.005 128.824C301.524 131.809 300.847 134.795 299.376 137.019C298.426 142.143 296.858 147.178 294.264 151.712C291.462 156.61 287.505 160.716 282.653 163.61C282.105 163.937 281.549 164.247 280.986 164.544C281.317 163.503 281.635 162.462 281.899 161.415C282.038 160.863 282.412 159.82 282.117 159.237C281.371 157.767 279.517 159.442 278.534 160.018C276.432 161.25 275.181 162.791 274.176 164.974C273.648 166.12 272.954 167.058 272.166 167.889C270.726 168.252 269.27 168.547 267.802 168.763C261.962 169.618 256.007 169.256 250.234 168.098C250.107 168.073 249.981 168.043 249.854 168.015C249.692 168.056 249.5 168.089 249.266 168.041C248.721 167.931 248.091 167.725 247.482 167.527C247.214 167.44 246.952 167.355 246.709 167.281C243.816 166.413 240.891 165.492 238.063 164.601L237.839 164.53C236.774 164.195 235.567 163.816 234.426 163.135C234.176 162.985 233.926 162.827 233.676 162.672C233.144 162.438 232.612 162.207 232.084 161.965C225.929 159.141 220.038 155.784 214.189 152.379C211.251 150.669 208.322 148.944 205.368 147.263C203.943 146.451 202.525 145.604 201.054 144.882C199.713 144.224 198.291 143.804 196.786 143.909C194.273 144.085 192.036 145.647 190.29 147.359C188.444 149.169 186.867 151.274 185.548 153.492C182.852 158.027 181.209 163.166 180.729 168.419C180.249 173.668 180.943 179.009 182.855 183.927C182.861 183.943 182.871 183.953 182.878 183.968C184.35 184.455 185.947 184.58 187.63 184.321C188.145 184.242 188.662 184.167 189.182 184.092C191.092 183.817 193.068 183.532 194.916 183.008C195.44 182.86 195.978 182.661 196.546 182.452C197.7 182.027 198.894 181.587 200.078 181.536C201.515 181.472 202.562 182.667 203.404 183.624L203.66 183.914C204.26 184.584 204.839 185.263 205.416 185.941C206.637 187.374 207.9 188.857 209.325 190.168C216.514 196.78 226.072 200.48 232.825 202.42C233.829 202.709 234.833 203.009 235.84 203.31C238.783 204.19 241.827 205.1 244.859 205.701C245.65 205.857 246.409 205.939 247.118 206.011C247.265 206.026 247.577 206.045 247.845 206.061C247.746 205.879 247.65 205.697 247.547 205.515C247.261 205.012 246.928 204.51 246.606 204.025C246.124 203.3 245.626 202.55 245.252 201.75C244.725 200.625 244.123 199.025 244.962 198.128C246.054 196.96 248.62 197.43 250.735 197.972C255.886 199.29 261.248 200.851 265.991 203.297C268.143 203.771 281.25 198.033 284.804 195.057C290.742 190.086 295.835 183.423 300.83 174.09C301.654 172.552 302.554 171.039 303.425 169.576C303.622 169.245 303.814 168.911 304.011 168.579C304.453 167.063 304.852 165.535 305.206 163.997C306.62 157.837 307.264 151.506 307.019 145.189C306.889 141.835 306.476 138.5 305.803 135.217C305.212 133.807 304.73 132.355 304.437 130.844C304.12 129.205 303.735 127.552 303.363 125.954ZM197.14 180.83C196.371 180.83 195.768 180.398 195.768 179.845C195.768 179.292 196.37 178.86 197.14 178.86C197.91 178.86 198.513 179.292 198.513 179.845C198.513 180.398 197.911 180.83 197.14 180.83Z" fill="#1E2228"/>
<path d="M267.657 205.078C262.528 202.007 256.403 200.197 250.549 198.699C249.532 198.439 246.44 197.648 245.513 198.641C245.122 199.058 245.264 199.997 245.935 201.431C246.286 202.18 246.768 202.906 247.234 203.609C247.564 204.105 247.905 204.619 248.204 205.144C249.025 206.592 249.73 208.041 250.359 209.575L250.512 209.945C250.988 211.101 251.471 212.284 251.726 213.517C253.983 217.437 256.586 221.196 260.104 224.094C263.477 226.872 267.655 228.79 272.085 228.742C274.387 228.717 276.646 228.276 278.924 227.999C281.273 227.714 283.633 227.712 285.981 228.016C286.487 228.082 286.745 227.473 286.474 227.098C283.856 223.483 281.424 219.739 278.907 216.055C277.256 213.642 275.547 211.237 273.731 208.919C273.234 208.539 272.724 208.175 272.191 207.845C270.695 206.918 269.171 205.985 267.657 205.078Z" fill="#1E2228"/>
<path d="M209.636 138C209.636 139.108 208.738 140.006 207.63 140.006C206.522 140.006 205.625 139.108 205.625 138C205.625 136.892 206.522 135.995 207.63 135.995C208.738 135.995 209.636 136.893 209.636 138Z" stroke="#1E2228" stroke-miterlimit="10"/>
<path d="M223.341 146.357C223.341 146.727 223.041 147.026 222.672 147.026C222.303 147.026 222.003 146.727 222.003 146.357C222.003 145.988 222.303 145.689 222.672 145.689C223.041 145.689 223.341 145.988 223.341 146.357Z" stroke="#1E2228" stroke-miterlimit="10"/>
<path d="M222.003 133.321C222.003 134.244 221.255 134.992 220.332 134.992C219.409 134.992 218.661 134.244 218.661 133.321C218.661 132.398 219.409 131.65 220.332 131.65C221.255 131.65 222.003 132.398 222.003 133.321Z" stroke="#1E2228" stroke-miterlimit="10"/>
</svg>
