<svg width="229" height="167" viewBox="0 0 229 167" fill="none" xmlns="http://www.w3.org/2000/svg">
<path d="M58.9068 12.4387C47.0702 12.2396 35.7462 35.327 31.6418 44.4667C26.2961 56.3679 22.9708 69.8022 22.0536 82.8334C20.8868 99.4118 23.7271 113.442 34.8999 125.977C61.8492 156.211 105.598 156.243 140.321 139.791C163.268 128.919 179.284 112.413 195.002 92.6677C207.256 77.2721 219.388 53.7828 213.575 33.7424C206.336 8.78596 182.424 -4.13967 157.543 1.18533C139.245 5.10201 125.829 12.6799 106.479 11.6806C87.5308 10.7017 71.9847 8.27734 54.1037 13.2389" fill="white"/>
<path d="M45.2214 106.328C46.0615 106.328 46.7424 105.647 46.7424 104.808C46.7424 103.968 46.0615 103.288 45.2214 103.288C44.3814 103.288 43.7004 103.968 43.7004 104.808C43.7004 105.647 44.3814 106.328 45.2214 106.328Z" stroke="#1E2228" stroke-miterlimit="10"/>
<path d="M73.3125 23.0756C74.1525 23.0756 74.8335 22.3952 74.8335 21.5558C74.8335 20.7164 74.1525 20.0359 73.3125 20.0359C72.4725 20.0359 71.7915 20.7164 71.7915 21.5558C71.7915 22.3952 72.4725 23.0756 73.3125 23.0756Z" stroke="#1E2228" stroke-miterlimit="10"/>
<path d="M214.808 8.84003C214.808 9.67975 214.128 10.3599 213.287 10.3599C212.447 10.3599 211.766 9.67975 211.766 8.84003C211.766 8.00032 212.447 7.32015 213.287 7.32015C214.128 7.32015 214.808 8.00032 214.808 8.84003Z" stroke="#1E2228" stroke-miterlimit="10"/>
<path d="M172.551 147.034C173.391 147.034 174.072 146.353 174.072 145.514C174.072 144.674 173.391 143.994 172.551 143.994C171.711 143.994 171.03 144.674 171.03 145.514C171.03 146.353 171.711 147.034 172.551 147.034Z" stroke="#1E2228" stroke-miterlimit="10"/>
<path d="M39.2984 114.404C39.2984 115.951 38.0439 117.203 36.4977 117.203C34.9503 117.203 33.697 115.949 33.697 114.404C33.697 112.858 34.9515 111.606 36.4977 111.606C38.0451 111.604 39.2984 112.858 39.2984 114.404Z" stroke="#1E2228" stroke-miterlimit="10"/>
<path d="M225.772 21.6349C225.772 23.1811 224.517 24.4335 222.971 24.4335C221.424 24.4335 220.17 23.1799 220.17 21.6349C220.17 20.0886 221.425 18.8362 222.971 18.8362C224.517 18.8362 225.772 20.0898 225.772 21.6349Z" stroke="#1E2228" stroke-miterlimit="10"/>
<path d="M196.806 68.0519C199.991 67.247 203.255 66.4061 206.419 65.3181C204.852 64.9606 203.225 64.8214 201.698 65.1741C200.143 65.5352 197.421 66.8667 196.806 68.0519Z" fill="#1E2228"/>
<path d="M210.898 53.4589C210.589 52.9659 210.098 52.5784 209.482 52.3913C208.49 52.0914 207.539 52.4309 206.748 53.0127C206.195 52.3241 205.16 52.1166 204.178 52.3097C203.926 52.7512 203.692 53.171 203.489 53.5453C202.895 54.6381 202.308 55.749 201.72 56.8622C200.82 58.562 199.891 60.3206 198.945 61.9989C198.339 63.0749 197.867 64.4017 197.367 65.8064C197.319 65.9407 197.271 66.0751 197.223 66.2094C198.656 65.1358 200.686 64.3933 201.473 64.2109C203.664 63.7023 205.951 64.0598 208.075 64.7267C211.093 63.5835 213.987 62.1728 216.592 60.2942C217.85 59.3873 219.308 58.3569 219.65 56.741C219.919 55.4719 219.387 54.2435 218.216 53.6725C216.062 52.6204 212.931 52.029 210.898 53.4589Z" fill="#1E2228"/>
<path d="M85.2406 101.549L85.0785 101.364C77.8577 93.089 73.2323 85.2976 70.9358 77.5435C68.1724 68.2118 68.1303 57.7201 70.775 47.1601C70.7197 47.0317 70.6633 46.9034 70.6081 46.7762C69.1783 45.8501 68.1207 44.3854 67.0631 43.0863C65.8086 41.546 64.4437 40.1796 62.9251 38.8973C59.5278 36.0266 55.6587 33.8158 51.4222 32.4471C44.2218 30.121 36.3935 29.3389 29.0767 31.6205C21.7274 33.913 15.958 38.1379 10.3122 45.6606C5.93769 51.4882 1.68803 55.4433 0.387926 62.5869C-2.00821 75.7525 7.46348 86.7791 7.67837 88.0507C7.7624 88.0495 7.84643 88.0447 7.93166 88.0303C8.75879 87.8852 9.03608 87.2434 9.43584 86.5872C10.7576 84.4147 13.6615 83.8497 15.9448 83.2523C16.2377 83.1756 16.5318 83.1072 16.8259 83.0376C17.3001 82.7533 17.7731 82.4342 18.2629 82.0707C19.4249 81.2082 19.9315 80.3589 20.5726 79.2853C20.8163 78.8774 21.0732 78.4456 21.3841 77.9837C21.5366 77.757 21.8439 77.6946 22.072 77.8481C22.3001 78.0005 22.3601 78.3088 22.2076 78.5355C21.9075 78.9818 21.659 79.398 21.4237 79.7927C20.7538 80.9155 20.1752 81.886 18.8547 82.8661C17.8103 83.6422 16.8295 84.2288 15.7695 84.7122C15.6495 84.7662 15.5402 84.8226 15.425 84.879C14.2485 86.3569 13.395 88.1023 13.0132 89.9653C12.928 90.3779 13.2101 90.9274 13.7083 90.877C16.6458 90.5759 19.4357 91.4252 22.2772 92.025C24.9591 92.5924 27.6878 92.9391 30.4308 92.9247C33.1439 92.9103 35.7909 92.5156 38.4367 91.9422C41.0562 91.3748 43.7344 90.679 46.4367 90.8278C49.3574 90.9885 51.487 92.4868 53.6083 94.3606C55.5926 96.112 57.6466 97.7746 59.6646 99.4877C68.709 107.169 77.2707 106.74 77.6956 106.648C81.4591 105.825 85.1782 105.313 89.0029 105.059C87.5335 104.159 86.4062 102.884 85.2406 101.549Z" fill="#1E2228"/>
<path d="M168.235 93.0086C170.271 90.6982 172.66 88.6793 174.932 86.8079C177.352 84.8142 179.732 82.6441 182.032 80.5448C184.606 78.196 187.267 75.7668 190.027 73.5476C190.425 73.2273 190.939 72.7462 191.482 72.2376C192.451 71.3307 193.546 70.3146 194.64 69.5481C194.747 69.4041 194.852 69.2602 194.957 69.1162C195.524 68.0162 195.985 66.7326 196.433 65.4743C196.925 64.0911 197.433 62.6612 198.081 61.512C199.021 59.8446 199.948 58.0932 200.843 56.3993C201.434 55.2825 202.023 54.1681 202.619 53.0717C202.956 52.4503 203.368 51.7185 203.835 50.9292C204.451 48.3057 204.945 46.6994 204.719 43.9103C204.494 41.1213 203.946 40.3955 203.487 39.1276C203.111 38.0911 203.15 37.7804 202.883 36.8471C202.856 36.7559 202.557 36.1358 202.228 34.8666C201.719 37.6424 201.195 39.6422 200.43 42.4588L200.107 43.6464C199.885 44.4693 199.667 45.3043 199.447 46.1464C197.823 52.3507 196.145 58.7673 192.219 63.7612C187.915 69.2326 183.142 73.881 178.089 78.8018L177.296 79.5755C167.689 88.9384 154.863 93.6504 144.762 96.7093C142.389 97.4279 139.954 97.789 137.6 98.1381C135.705 98.4188 133.744 98.7103 131.851 99.1841C130.861 99.4324 130.001 99.7287 129.17 100.015C127.49 100.595 125.9 101.142 123.646 101.143C123.64 101.143 123.635 101.143 123.629 101.143C120.483 101.143 117.005 100.817 113.572 100.2C112.664 100.037 111.728 99.9183 110.786 99.7995C108.961 99.5692 107.075 99.3305 105.337 98.7571C101.424 97.4687 97.0147 94.3257 92.2308 89.4122C85.5994 82.6021 82.549 72.2772 81.1601 64.8157C80.9224 63.5405 80.7483 62.2486 80.5803 60.9986C80.1793 58.0116 79.7999 55.1913 78.6211 52.4527C78.1397 51.3346 76.2321 47.4947 74.4602 46.0336C74.1445 45.7085 74.1877 45.1315 72.7784 45.3103C71.9969 45.4098 71.8469 47.8894 71.8361 47.899C69.3571 58.0992 69.4231 68.2081 72.0881 77.2027C74.3342 84.789 78.8792 92.434 85.9847 100.576L86.1468 100.762C87.7542 102.605 89.1432 104.198 91.4205 104.823C91.4889 104.843 91.5477 104.876 91.6018 104.915C95.2152 104.774 98.8718 104.768 102.419 104.774L104.798 104.775C104.806 104.775 104.812 104.775 104.819 104.775C109.648 104.775 114.054 106.659 117.353 108.3C119.357 109.297 121.31 110.434 123.214 111.586C134.724 109.9 145.963 106.391 156.365 101.186C159.285 99.7251 162.127 98.1129 164.901 96.3938C165.347 95.932 165.8 95.4786 166.254 95.0371C166.925 94.3809 167.621 93.7031 168.235 93.0086Z" fill="#1E2228"/>
<path d="M113.708 146.622C111.874 143.656 109.64 140.425 106.783 138.329C107.688 140.582 108.741 142.777 110.102 144.905C111.685 147.38 113.585 149.641 115.665 151.755C115.525 151.338 115.389 150.915 115.254 150.478C114.841 149.142 114.413 147.761 113.708 146.622Z" fill="#1E2228"/>
<path d="M75.8432 46.8958C77.7712 48.5944 79.4459 51.3367 79.7268 51.9893C80.9705 54.8791 81.3786 57.9141 81.7736 60.8495C81.9404 62.0851 82.1121 63.3627 82.3438 64.6078C83.7039 71.9062 86.6715 81.9912 93.0952 88.5866C97.7422 93.3598 101.989 96.4019 105.717 97.6279C107.346 98.1641 109.173 98.3957 110.941 98.6188C111.905 98.7411 112.862 98.8623 113.79 99.0291C117.155 99.6337 120.558 99.9527 123.634 99.9527C123.64 99.9527 123.645 99.9527 123.651 99.9527C125.704 99.9515 127.131 99.4597 128.783 98.8911C129.639 98.596 130.522 98.2913 131.562 98.031C133.514 97.5416 135.503 97.2465 137.428 96.961C139.741 96.6191 142.129 96.264 144.419 95.5718C154.389 92.5524 167.04 87.91 176.46 78.7283L177.255 77.9534C182.279 73.0602 187.023 68.4394 191.277 63.0304C195.051 58.2332 196.697 51.9401 198.289 45.8546C198.51 45.0089 198.728 44.1715 198.952 43.345L199.274 42.1562C200.421 37.9372 201.501 33.903 201.81 29.6744C201.807 29.4573 201.806 29.2414 201.802 29.0254C201.83 28.8263 201.858 28.6248 201.884 28.4316C201.892 28.2061 201.889 27.9782 201.891 27.7515C201.836 27.4144 201.744 26.9645 201.759 26.8446C201.757 26.8422 201.754 26.841 201.752 26.8386C201.73 26.1092 201.705 25.3799 201.678 24.6517C201.07 22.8115 199.998 21.1657 198.253 20.1304C196.913 19.3363 195.382 19.0424 193.861 19.4287C192.957 19.659 191.996 20.23 191.029 20.5863C190.387 19.9577 189.206 19.2295 188.897 18.8589C188.044 17.8344 186.314 17.1219 185.129 16.4813C182.47 15.0418 178.969 13.757 176.06 15.0526C175.242 13.8326 174.087 12.9952 171.852 12.9233C168.964 12.8309 166.133 13.0924 163.237 13.0852C160.785 13.0792 156.556 12.6929 154.371 13.8542C153.414 14.3628 152.665 15.1833 151.907 15.9918C150.234 14.4276 148.368 13.4019 145.632 13.8985C142.837 14.406 140.176 14.9182 137.337 15.1917C134.527 15.4628 131.439 15.5996 128.79 16.7656C127.891 17.1614 127.276 17.8788 126.677 18.6154C125.561 17.3906 124.202 16.6984 121.852 16.804C116.339 17.0523 110.348 19.0748 105.557 21.7343C103.618 22.8115 102.166 24.3542 100.855 26.1056C100.38 26.7402 100.177 27.3256 100.025 27.905C100.017 27.911 100.007 27.917 99.9991 27.923C99.9499 27.9566 99.903 27.9938 99.8538 28.0286C99.1215 27.6135 98.2848 27.3856 97.2368 27.5164C96.1912 27.6471 94.7266 27.8606 93.7482 28.2061C89.9572 29.5449 85.6499 32.9889 82.9752 36.0527C81.794 37.4046 73.668 44.7222 75.7112 46.6871C75.6548 46.7615 75.8468 46.8958 75.8432 46.8958ZM160.754 75.3442C160.713 75.3346 160.671 75.3322 160.634 75.3142C160.613 75.3046 160.597 75.2902 160.578 75.2782C160.533 75.2483 160.493 75.2123 160.458 75.1667C160.449 75.1547 160.434 75.1499 160.427 75.1367C160.421 75.1271 160.419 75.1151 160.415 75.1043C160.533 75.1631 160.642 75.2567 160.754 75.3442Z" fill="#1E2228"/>
<path d="M161.33 160.552C160.72 160.135 160.024 160.011 159.355 160.122C159.456 159.504 159.432 158.863 159.216 158.27C158.996 157.669 158.647 157.123 158.144 156.72C157.844 156.479 157.535 156.271 157.17 156.145C156.867 156.041 156.554 155.987 156.236 155.951C155.897 155.913 155.547 155.91 155.223 156.03C155.185 156.045 155.149 156.064 155.11 156.08C155.299 155.548 155.343 154.939 155.294 154.43C155.133 152.758 154.388 151.215 152.977 150.251C152.301 149.789 151.371 149.497 150.552 149.55C150.056 149.582 149.604 149.714 149.189 149.933C149.377 149.451 149.455 148.917 149.42 148.436C149.352 147.498 149.109 146.514 148.584 145.721C148.116 145.013 147.468 144.406 146.719 144.006C146.326 143.796 145.923 143.69 145.485 143.632C145.449 143.628 145.414 143.631 145.379 143.63C145.616 143.107 145.714 142.502 145.717 141.961C145.721 140.919 145.469 139.885 144.995 138.958C144.587 138.161 143.955 137.354 143.2 136.858C142.456 136.37 141.652 136.118 140.775 136.083C140.769 136.073 140.763 136.062 140.757 136.051C140.963 134.562 140.184 133.006 139.262 131.886C138.761 131.278 138.126 130.686 137.433 130.305C136.767 129.937 136.008 129.746 135.253 129.675C135.399 129.153 135.417 128.568 135.378 128.115C135.294 127.115 134.898 126.145 134.321 125.328C133.776 124.557 133.067 123.92 132.247 123.449C131.552 123.051 130.618 122.694 129.809 122.901C129.86 122.445 129.82 121.971 129.735 121.547C129.561 120.681 129.246 119.811 128.758 119.07C128.244 118.291 127.561 117.63 126.704 117.245C126.227 117.031 125.729 116.847 125.21 116.776C124.972 116.744 124.734 116.73 124.496 116.708C124.51 116.317 124.441 115.909 124.353 115.531C124.161 114.698 123.791 113.893 123.275 113.213C122.929 112.755 122.518 112.379 122.061 112.054C120.377 111.047 118.662 110.059 116.913 109.189C113.711 107.595 109.443 105.767 104.82 105.767C104.814 105.767 104.808 105.767 104.801 105.767H102.419C98.8935 105.764 95.2573 105.77 91.6715 105.908C88.7387 105.621 86.423 106.63 83.3066 106.759C82.9537 106.774 79.7076 107.556 78.9922 107.607C79.4747 110.112 79.9081 110.518 79.9969 113.175C80.0905 115.988 79.9609 118.819 79.6992 121.661C79.3715 125.209 78.8709 128.77 78.554 132.323C82.9561 138.855 84.884 147.664 84.0149 156.172C86.1565 158.602 88.7952 160.318 91.6463 161.415C94.1024 162.361 96.7182 162.274 99.2512 162.855C100.065 163.042 100.712 163.02 101.288 162.938C102.128 163.03 102.98 163.023 103.829 162.882C107.189 162.326 104.665 158.818 102.746 157.794C104.413 156.846 103.428 155.276 102.225 154.428C101.308 153.78 101.24 154.307 101.183 153.372C101.147 152.787 101.932 152.298 101.893 151.549C101.815 150.017 99.8143 149.776 99.9487 148.523C100.012 147.925 100.996 147.397 101.058 146.66C101.161 145.449 100.042 144.948 99.5045 144.092C98.6522 142.734 99.6678 143.099 99.9799 141.63C100.381 139.749 98.2789 139.105 97.8923 137.711C97.6594 136.874 98.579 135.827 98.7134 135.037C99.0147 133.27 98.0268 132.859 97.4986 131.539C96.9043 130.057 98.3101 128.033 97.6138 126.103C97.3197 125.289 96.5322 124.924 96.5754 124.065C96.609 123.392 97.1936 122.752 97.2344 121.962C97.2777 121.104 97.1072 120.395 96.6991 119.662C96.5286 119.356 95.9764 119.18 95.8935 118.846C95.7663 118.329 96.3245 117.743 96.4481 117.24C96.645 116.44 96.6558 115.363 96.2837 114.605C95.9355 113.895 94.8407 113.529 94.5334 112.894C94.4938 112.748 94.441 112.574 94.3785 112.382C94.2165 111.468 94.5322 110.412 94.058 109.484C93.7663 108.914 93.2369 108.151 92.6259 107.589C92.5838 107.408 92.5526 107.234 92.5298 107.065C92.5346 107.071 92.5382 107.075 92.543 107.081C93.9152 108.649 95.6234 110.6 96.2441 111.537C98.5106 114.969 100.363 118.915 102.072 123.957C102.704 125.817 103.275 127.707 103.829 129.534C104.575 131.998 105.309 134.397 106.167 136.735C109.757 138.855 112.419 142.658 114.551 146.104C115.323 147.35 115.77 148.793 116.202 150.188C116.59 151.442 116.961 152.623 117.527 153.558C120.761 156.569 124.318 159.285 127.827 161.859C128.469 162.329 129.122 162.753 129.788 163.137C131.935 164.148 134.214 164.838 136.571 165.32C143.104 166.658 150.617 168.123 157.039 165.704C158.52 165.517 160.108 165.154 161.371 164.357C162.033 163.938 162.539 163.283 162.487 162.461C162.438 161.665 161.977 160.992 161.33 160.552Z" fill="#1E2228"/>
<path d="M78.2738 139.492C78.4262 144.765 79.6483 149.65 82.1453 153.666C82.503 154.242 82.8908 154.777 83.2929 155.294C83.9004 147.656 82.1957 139.849 78.4323 133.822C78.2966 135.715 78.2197 137.606 78.2738 139.492Z" fill="#1E2228"/>
<path d="M228.249 75.2902C228.047 73.9095 226.772 73.2629 225.491 73.1885C224.492 73.1309 223.538 73.3852 222.681 73.8495C222.13 72.7771 221.09 71.9649 219.878 71.7886C218.73 71.6206 217.597 72.0585 216.824 72.8742C216.757 72.7723 216.697 72.6679 216.62 72.5719C216.102 71.9289 215.342 71.4719 214.549 71.2524C213.671 71.0101 212.644 71.0568 211.787 71.3579C211.051 71.6171 210.42 71.9997 209.819 72.4568C209.667 72.2396 209.503 72.0441 209.35 71.8917C208.718 71.262 207.867 70.9501 206.98 70.9717C206.122 70.9921 205.337 71.2716 204.64 71.767C204.32 71.9949 203.979 72.2588 203.747 72.5851C203.622 72.404 203.483 72.2348 203.331 72.0933C202.614 71.4275 201.586 71.1492 200.643 71.034C199.644 70.9117 198.621 70.9681 197.658 71.2692C196.814 71.5331 195.858 71.9361 195.355 72.7027C194.867 72.4184 194.327 72.224 193.769 72.1437C193.531 72.1101 193.302 72.1041 193.074 72.1125C192.756 72.4028 192.446 72.6907 192.158 72.9594C191.577 73.504 191.074 73.9743 190.645 74.3185C187.909 76.5186 185.26 78.9358 182.697 81.275C180.387 83.3827 177.999 85.5612 175.56 87.5705C173.319 89.4167 170.964 91.4068 168.976 93.662C168.338 94.3854 167.629 95.0763 166.942 95.7445C166.813 95.8705 166.684 95.9988 166.554 96.126C166.63 96.1764 166.705 96.2291 166.782 96.2795C167.139 96.5195 167.495 96.7402 167.875 96.9417C168.488 97.2656 169.117 97.6063 169.782 97.8246C171.204 98.5792 172.699 99.2029 174.228 99.7332C175.062 99.3937 176.027 99.2437 176.919 99.107C177.254 99.0554 177.576 99.0062 177.869 98.9486C178.49 98.8263 179.105 98.6907 179.717 98.5564C181.707 98.1185 183.769 97.6651 185.931 97.7107C190.72 97.8078 195.356 98.9438 199.88 100.496C207.154 98.494 213.853 94.5833 219.232 89.2607C221.812 86.7068 224.063 83.8757 225.815 80.7424C226.299 80.2181 226.713 79.6219 227.065 79.0113C227.693 77.9233 228.438 76.5894 228.249 75.2902Z" fill="#1E2228"/>
<path d="M179.933 99.5234C179.315 99.659 178.693 99.7969 178.063 99.9205C177.757 99.9805 177.422 100.032 177.073 100.086C176.709 100.142 176.331 100.202 175.96 100.276C177.164 100.627 178.376 100.941 179.594 101.18C184.485 102.142 189.508 102.299 194.447 101.619C195.674 101.45 196.89 101.223 198.093 100.949C194.116 99.6782 190.06 98.7857 185.912 98.7017C183.868 98.6525 181.955 99.0784 179.933 99.5234Z" fill="#1E2228"/>
</svg>
