<svg width="1440" height="180" viewBox="0 0 1440 180" fill="none" xmlns="http://www.w3.org/2000/svg">
    <path d="M-66 0C-41.4444 0 -30.6381 10.1521 5.13889 10.1521C40.9159 10.1521 49.9167 0 77 0C101.556 0 112.362 10.1521 148.139 10.1521C183.916 10.1521 192.917 0 220 0C244.556 0 255.362 10.1521 291.139 10.1521C326.916 10.1521 335.917 0 363 0C387.556 0 398.362 10.1521 434.139 10.1521C469.916 10.1521 478.917 0 506 0C530.556 0 541.362 10.1521 577.139 10.1521C612.916 10.1521 621.917 0 649 0C673.556 0 684.362 10.1521 720.139 10.1521C755.916 10.1521 764.917 0 792 0C816.556 0 827.362 10.1521 863.139 10.1521C898.916 10.1521 907.917 0 935 0C959.556 0 970.362 10.1521 1006.14 10.1521C1041.92 10.1521 1050.92 0 1078 0C1102.56 0 1113.36 10.1521 1149.14 10.1521C1184.92 10.1521 1193.92 0 1221 0C1245.56 0 1256.36 10.1521 1292.14 10.1521C1327.92 10.1521 1336.92 0 1364 0C1388.56 0 1399.36 10.1521 1435.14 10.1521C1470.92 10.1521 1479.92 0 1507 0V104H-66V0Z" fill="#636DCE"/>
    <path d="M0 87H1441V180H0V87Z" fill="#636DCE"/>
</svg>
