<svg width="1440" height="85" viewBox="0 0 1440 85" fill="none" xmlns="http://www.w3.org/2000/svg">
    <path d="M-71.0824 84C-110.771 84 -122.759 72.3639 -150 72.3639V-1H1595V72.3639C1564.96 72.3639 1554.97 84 1515.28 84C1475.59 84 1463.6 72.3639 1436.36 72.3639C1406.32 72.3639 1396.33 84 1356.64 84C1316.96 84 1304.97 72.3639 1277.73 72.3639C1247.68 72.3639 1237.7 84 1198.01 84C1158.32 84 1146.33 72.3639 1119.09 72.3639C1089.05 72.3639 1079.06 84 1039.37 84C999.683 84 987.695 72.3639 960.455 72.3639C930.41 72.3639 920.425 84 880.736 84C841.047 84 829.059 72.3639 801.818 72.3639C771.773 72.3639 761.788 84 722.099 84C682.41 84 670.422 72.3639 643.182 72.3639C613.137 72.3639 603.152 84 563.463 84C523.774 84 511.786 72.3639 484.545 72.3639C454.501 72.3639 444.516 84 404.827 84C365.138 84 353.15 72.3639 325.909 72.3639C295.864 72.3639 285.879 84 246.19 84C206.501 84 194.513 72.3639 167.273 72.3639C137.228 72.3639 127.243 84 87.5539 84C47.8649 84 35.877 72.3639 8.63637 72.3639C-21.4084 72.3639 -31.3934 84 -71.0824 84Z" fill="white" stroke="#1E2228"/>
</svg>
